M48
; DRILL file {KiCad (5.1.6)-1} date 10/13/20 15:43:06
; FORMAT={-:-/ absolute / metric / decimal}
; #@! TF.CreationDate,2020-10-13T15:43:06+02:00
; #@! TF.GenerationSoftware,Kicad,Pcbnew,(5.1.6)-1
; #@! TF.FileFunction,Plated,1,2,PTH
FMAT,2
METRIC
T1C0.600
T2C0.760
T3C0.800
T4C0.900
T5C1.000
T6C1.100
%
G90
G05
T1
X89.0Y-54.0
X89.0Y-57.0
X89.5Y-113.5
X92.75Y-103.0
X93.0Y-123.25
X95.0Y-103.25
X97.5Y-111.75
X97.5Y-114.25
X102.25Y-87.5
X103.5Y-54.25
X103.5Y-89.5
X105.5Y-52.25
X166.75Y-95.75
X183.25Y-54.5
X183.25Y-57.5
X185.0Y-76.25
X228.5Y-106.5
X230.25Y-108.75
T2
X81.46Y-64.65
X81.46Y-66.85
X84.0Y-63.75
X84.0Y-65.95
X81.46Y-49.4
X81.46Y-51.6
X84.0Y-48.5
X84.0Y-50.7
T3
X160.92Y-64.0
X163.46Y-64.0
X166.0Y-64.0
X131.42Y-105.75
X133.96Y-105.75
X136.5Y-105.75
X125.0Y-104.59
X125.0Y-114.75
X133.75Y-109.84
X133.75Y-120.0
X164.0Y-67.84
X164.0Y-78.0
X151.17Y-105.75
X153.71Y-105.75
X156.25Y-105.75
X171.17Y-64.0
X173.71Y-64.0
X176.25Y-64.0
X81.75Y-127.25
X81.75Y-137.41
X93.0Y-125.75
X93.0Y-135.91
X154.0Y-67.84
X154.0Y-78.0
X161.42Y-105.75
X163.96Y-105.75
X166.5Y-105.75
X104.5Y-67.84
X104.5Y-78.0
X164.25Y-109.84
X164.25Y-120.0
X144.0Y-67.84
X144.0Y-78.0
X206.5Y-51.5
X206.5Y-56.5
X111.42Y-63.75
X113.96Y-63.75
X116.5Y-63.75
X203.25Y-109.5
X208.25Y-109.5
X101.42Y-63.75
X103.96Y-63.75
X106.5Y-63.75
X218.25Y-64.5
X218.25Y-69.5
X144.0Y-109.84
X144.0Y-120.0
X114.5Y-67.84
X114.5Y-78.0
X219.5Y-57.5
X224.5Y-57.5
X121.42Y-63.75
X123.96Y-63.75
X126.5Y-63.75
X124.5Y-67.84
X124.5Y-78.0
X115.25Y-104.59
X115.25Y-114.75
X105.5Y-104.59
X105.5Y-114.75
X131.47Y-63.9
X134.01Y-63.9
X136.55Y-63.9
X140.92Y-64.0
X143.46Y-64.0
X146.0Y-64.0
X184.35Y-98.63
X184.35Y-106.25
X186.89Y-98.63
X186.89Y-106.25
X189.43Y-98.63
X189.43Y-106.25
X191.97Y-98.63
X191.97Y-106.25
X194.51Y-98.63
X194.51Y-106.25
X197.05Y-98.63
X197.05Y-106.25
X199.59Y-98.63
X199.59Y-106.25
X202.13Y-98.63
X202.13Y-106.25
X204.67Y-98.63
X204.67Y-106.25
X207.21Y-98.63
X207.21Y-106.25
X209.75Y-98.63
X209.75Y-106.25
X212.29Y-98.63
X212.29Y-106.25
X214.83Y-98.63
X214.83Y-106.25
X217.37Y-98.63
X217.37Y-106.25
X134.5Y-67.84
X134.5Y-78.0
X153.75Y-109.84
X153.75Y-120.0
X174.0Y-67.84
X174.0Y-78.0
X150.92Y-64.0
X153.46Y-64.0
X156.0Y-64.0
X203.25Y-113.5
X208.25Y-113.5
X213.25Y-51.5
X213.25Y-56.5
X141.42Y-105.75
X143.96Y-105.75
X146.5Y-105.75
T4
X86.5Y-131.0
X89.0Y-131.0
X74.75Y-131.0
X77.25Y-131.0
T5
X207.5Y-89.7
X207.5Y-92.2
X207.5Y-94.7
X168.0Y-109.59
X168.0Y-119.75
X163.17Y-91.84
X163.17Y-99.46
X163.17Y-102.0
X168.25Y-91.84
X168.25Y-99.46
X168.25Y-102.0
X108.75Y-105.0
X108.75Y-115.16
X113.42Y-91.84
X113.42Y-99.46
X113.42Y-102.0
X118.5Y-91.84
X118.5Y-99.46
X118.5Y-102.0
X143.17Y-91.84
X143.17Y-99.46
X143.17Y-102.0
X148.25Y-91.84
X148.25Y-99.46
X148.25Y-102.0
X217.5Y-89.75
X217.5Y-92.25
X217.5Y-94.75
X108.5Y-67.34
X108.5Y-77.5
X113.42Y-50.09
X113.42Y-57.71
X113.42Y-60.25
X118.5Y-50.09
X118.5Y-57.71
X118.5Y-60.25
X123.42Y-50.09
X123.42Y-57.71
X123.42Y-60.25
X128.5Y-50.09
X128.5Y-57.71
X128.5Y-60.25
X212.5Y-89.75
X212.5Y-92.25
X212.5Y-94.75
X214.25Y-65.5
X214.25Y-68.04
X214.25Y-70.58
X118.5Y-67.34
X118.5Y-77.5
X123.17Y-91.84
X123.17Y-99.46
X123.17Y-102.0
X128.25Y-91.84
X128.25Y-99.46
X128.25Y-102.0
X103.67Y-91.84
X103.67Y-99.46
X103.67Y-102.0
X108.75Y-91.84
X108.75Y-99.46
X108.75Y-102.0
X128.5Y-67.34
X128.5Y-77.5
X143.42Y-50.09
X143.42Y-57.71
X143.42Y-60.25
X148.5Y-50.09
X148.5Y-57.71
X148.5Y-60.25
X77.5Y-113.5
X77.5Y-118.5
X77.5Y-123.5
X82.5Y-111.0
X82.5Y-116.0
X82.5Y-121.0
X77.5Y-78.5
X77.5Y-83.5
X77.5Y-88.5
X82.5Y-76.0
X82.5Y-81.0
X82.5Y-86.0
X133.17Y-91.84
X133.17Y-99.46
X133.17Y-102.0
X138.25Y-91.84
X138.25Y-99.46
X138.25Y-102.0
X148.0Y-109.5
X148.0Y-119.66
X138.0Y-109.59
X138.0Y-119.75
X153.17Y-91.84
X153.17Y-99.46
X153.17Y-102.0
X158.25Y-91.84
X158.25Y-99.46
X158.25Y-102.0
X138.5Y-67.34
X138.5Y-77.5
X178.0Y-67.59
X178.0Y-77.75
X173.42Y-50.09
X173.42Y-57.71
X173.42Y-60.25
X178.5Y-50.09
X178.5Y-57.71
X178.5Y-60.25
X163.42Y-50.09
X163.42Y-57.71
X163.42Y-60.25
X168.5Y-50.09
X168.5Y-57.71
X168.5Y-60.25
X206.09Y-47.75
X216.25Y-47.75
X77.5Y-96.0
X77.5Y-101.0
X77.5Y-106.0
X82.5Y-93.5
X82.5Y-98.5
X82.5Y-103.5
X118.5Y-105.0
X118.5Y-115.16
X153.42Y-50.09
X153.42Y-57.71
X153.42Y-60.25
X158.5Y-50.09
X158.5Y-57.71
X158.5Y-60.25
X158.0Y-67.59
X158.0Y-77.75
X148.0Y-67.59
X148.0Y-77.75
X128.25Y-105.0
X128.25Y-115.16
X103.42Y-50.09
X103.42Y-57.71
X103.42Y-60.25
X108.5Y-50.09
X108.5Y-57.71
X108.5Y-60.25
X133.42Y-50.09
X133.42Y-57.71
X133.42Y-60.25
X138.5Y-50.09
X138.5Y-57.71
X138.5Y-60.25
X157.75Y-109.59
X157.75Y-119.75
X168.0Y-67.59
X168.0Y-77.75
T6
X194.5Y-48.25
X199.58Y-48.25
T0
M30
