%FSLAX45Y45*%
G04 Gerber Fmt 4.5, Leading zero omitted, Abs format (unit mm)*
G04 Created by KiCad (PCBNEW (5.1.6)-1) date 2020-10-13 15:43:09*
%MOMM*%
%LPD*%
G01*
G04 APERTURE LIST*
%TA.AperFunction,Profile*%
%ADD10C,0.100000*%
%TD*%
%ADD11C,0.200000*%
%ADD12C,0.300000*%
G04 APERTURE END LIST*
D10*
X23200000Y-4000000D02*
X23200000Y-14000000D01*
X7200000Y-14000000D02*
X23200000Y-14000000D01*
X7200000Y-4000000D02*
X7200000Y-14000000D01*
X7200000Y-4000000D02*
X23200000Y-4000000D01*
D11*
X7800000Y-5815000D02*
X8000000Y-6015000D01*
X8000000Y-5815000D02*
X7800000Y-6015000D01*
X7800000Y-7035000D02*
X8000000Y-7235000D01*
X8000000Y-7035000D02*
X7800000Y-7235000D01*
X7800000Y-4290000D02*
X8000000Y-4490000D01*
X8000000Y-4290000D02*
X7800000Y-4490000D01*
X7800000Y-5510000D02*
X8000000Y-5710000D01*
X8000000Y-5510000D02*
X7800000Y-5710000D01*
D12*
X7481428Y-14470714D02*
X7481428Y-14170714D01*
X7552857Y-14170714D01*
X7595714Y-14185000D01*
X7624286Y-14213571D01*
X7638571Y-14242143D01*
X7652857Y-14299286D01*
X7652857Y-14342143D01*
X7638571Y-14399286D01*
X7624286Y-14427857D01*
X7595714Y-14456429D01*
X7552857Y-14470714D01*
X7481428Y-14470714D01*
X7781428Y-14470714D02*
X7781428Y-14270714D01*
X7781428Y-14327857D02*
X7795714Y-14299286D01*
X7810000Y-14285000D01*
X7838571Y-14270714D01*
X7867143Y-14270714D01*
X7967143Y-14470714D02*
X7967143Y-14270714D01*
X7967143Y-14170714D02*
X7952857Y-14185000D01*
X7967143Y-14199286D01*
X7981428Y-14185000D01*
X7967143Y-14170714D01*
X7967143Y-14199286D01*
X8152857Y-14470714D02*
X8124286Y-14456429D01*
X8110000Y-14427857D01*
X8110000Y-14170714D01*
X8310000Y-14470714D02*
X8281428Y-14456429D01*
X8267143Y-14427857D01*
X8267143Y-14170714D01*
X8652857Y-14470714D02*
X8652857Y-14170714D01*
X8752857Y-14385000D01*
X8852857Y-14170714D01*
X8852857Y-14470714D01*
X9124286Y-14470714D02*
X9124286Y-14313571D01*
X9110000Y-14285000D01*
X9081428Y-14270714D01*
X9024286Y-14270714D01*
X8995714Y-14285000D01*
X9124286Y-14456429D02*
X9095714Y-14470714D01*
X9024286Y-14470714D01*
X8995714Y-14456429D01*
X8981428Y-14427857D01*
X8981428Y-14399286D01*
X8995714Y-14370714D01*
X9024286Y-14356429D01*
X9095714Y-14356429D01*
X9124286Y-14342143D01*
X9267143Y-14270714D02*
X9267143Y-14570714D01*
X9267143Y-14285000D02*
X9295714Y-14270714D01*
X9352857Y-14270714D01*
X9381428Y-14285000D01*
X9395714Y-14299286D01*
X9410000Y-14327857D01*
X9410000Y-14413571D01*
X9395714Y-14442143D01*
X9381428Y-14456429D01*
X9352857Y-14470714D01*
X9295714Y-14470714D01*
X9267143Y-14456429D01*
X9538571Y-14442143D02*
X9552857Y-14456429D01*
X9538571Y-14470714D01*
X9524286Y-14456429D01*
X9538571Y-14442143D01*
X9538571Y-14470714D01*
X9538571Y-14285000D02*
X9552857Y-14299286D01*
X9538571Y-14313571D01*
X9524286Y-14299286D01*
X9538571Y-14285000D01*
X9538571Y-14313571D01*
X6995000Y-14865000D02*
X7195000Y-15065000D01*
X7195000Y-14865000D02*
X6995000Y-15065000D01*
X7467143Y-14829286D02*
X7481428Y-14815000D01*
X7510000Y-14800714D01*
X7581428Y-14800714D01*
X7610000Y-14815000D01*
X7624286Y-14829286D01*
X7638571Y-14857857D01*
X7638571Y-14886429D01*
X7624286Y-14929286D01*
X7452857Y-15100714D01*
X7638571Y-15100714D01*
X7767143Y-15072143D02*
X7781428Y-15086429D01*
X7767143Y-15100714D01*
X7752857Y-15086429D01*
X7767143Y-15072143D01*
X7767143Y-15100714D01*
X7967143Y-14800714D02*
X7995714Y-14800714D01*
X8024286Y-14815000D01*
X8038571Y-14829286D01*
X8052857Y-14857857D01*
X8067143Y-14915000D01*
X8067143Y-14986429D01*
X8052857Y-15043571D01*
X8038571Y-15072143D01*
X8024286Y-15086429D01*
X7995714Y-15100714D01*
X7967143Y-15100714D01*
X7938571Y-15086429D01*
X7924286Y-15072143D01*
X7910000Y-15043571D01*
X7895714Y-14986429D01*
X7895714Y-14915000D01*
X7910000Y-14857857D01*
X7924286Y-14829286D01*
X7938571Y-14815000D01*
X7967143Y-14800714D01*
X8252857Y-14800714D02*
X8281428Y-14800714D01*
X8310000Y-14815000D01*
X8324286Y-14829286D01*
X8338571Y-14857857D01*
X8352857Y-14915000D01*
X8352857Y-14986429D01*
X8338571Y-15043571D01*
X8324286Y-15072143D01*
X8310000Y-15086429D01*
X8281428Y-15100714D01*
X8252857Y-15100714D01*
X8224286Y-15086429D01*
X8210000Y-15072143D01*
X8195714Y-15043571D01*
X8181428Y-14986429D01*
X8181428Y-14915000D01*
X8195714Y-14857857D01*
X8210000Y-14829286D01*
X8224286Y-14815000D01*
X8252857Y-14800714D01*
X8481428Y-15100714D02*
X8481428Y-14900714D01*
X8481428Y-14929286D02*
X8495714Y-14915000D01*
X8524286Y-14900714D01*
X8567143Y-14900714D01*
X8595714Y-14915000D01*
X8610000Y-14943571D01*
X8610000Y-15100714D01*
X8610000Y-14943571D02*
X8624286Y-14915000D01*
X8652857Y-14900714D01*
X8695714Y-14900714D01*
X8724286Y-14915000D01*
X8738571Y-14943571D01*
X8738571Y-15100714D01*
X8881428Y-15100714D02*
X8881428Y-14900714D01*
X8881428Y-14929286D02*
X8895714Y-14915000D01*
X8924286Y-14900714D01*
X8967143Y-14900714D01*
X8995714Y-14915000D01*
X9010000Y-14943571D01*
X9010000Y-15100714D01*
X9010000Y-14943571D02*
X9024286Y-14915000D01*
X9052857Y-14900714D01*
X9095714Y-14900714D01*
X9124286Y-14915000D01*
X9138571Y-14943571D01*
X9138571Y-15100714D01*
X9724286Y-14786429D02*
X9467143Y-15172143D01*
X10110000Y-14800714D02*
X10138571Y-14800714D01*
X10167143Y-14815000D01*
X10181428Y-14829286D01*
X10195714Y-14857857D01*
X10210000Y-14915000D01*
X10210000Y-14986429D01*
X10195714Y-15043571D01*
X10181428Y-15072143D01*
X10167143Y-15086429D01*
X10138571Y-15100714D01*
X10110000Y-15100714D01*
X10081428Y-15086429D01*
X10067143Y-15072143D01*
X10052857Y-15043571D01*
X10038571Y-14986429D01*
X10038571Y-14915000D01*
X10052857Y-14857857D01*
X10067143Y-14829286D01*
X10081428Y-14815000D01*
X10110000Y-14800714D01*
X10338571Y-15072143D02*
X10352857Y-15086429D01*
X10338571Y-15100714D01*
X10324286Y-15086429D01*
X10338571Y-15072143D01*
X10338571Y-15100714D01*
X10538571Y-14800714D02*
X10567143Y-14800714D01*
X10595714Y-14815000D01*
X10610000Y-14829286D01*
X10624286Y-14857857D01*
X10638571Y-14915000D01*
X10638571Y-14986429D01*
X10624286Y-15043571D01*
X10610000Y-15072143D01*
X10595714Y-15086429D01*
X10567143Y-15100714D01*
X10538571Y-15100714D01*
X10510000Y-15086429D01*
X10495714Y-15072143D01*
X10481428Y-15043571D01*
X10467143Y-14986429D01*
X10467143Y-14915000D01*
X10481428Y-14857857D01*
X10495714Y-14829286D01*
X10510000Y-14815000D01*
X10538571Y-14800714D01*
X10738571Y-14800714D02*
X10938571Y-14800714D01*
X10810000Y-15100714D01*
X11067143Y-15100714D02*
X11124286Y-15100714D01*
X11152857Y-15086429D01*
X11167143Y-15072143D01*
X11195714Y-15029286D01*
X11210000Y-14972143D01*
X11210000Y-14857857D01*
X11195714Y-14829286D01*
X11181428Y-14815000D01*
X11152857Y-14800714D01*
X11095714Y-14800714D01*
X11067143Y-14815000D01*
X11052857Y-14829286D01*
X11038571Y-14857857D01*
X11038571Y-14929286D01*
X11052857Y-14957857D01*
X11067143Y-14972143D01*
X11095714Y-14986429D01*
X11152857Y-14986429D01*
X11181428Y-14972143D01*
X11195714Y-14957857D01*
X11210000Y-14929286D01*
X11324286Y-14800714D02*
X11324286Y-14857857D01*
X11438571Y-14800714D02*
X11438571Y-14857857D01*
X11881428Y-15215000D02*
X11867143Y-15200714D01*
X11838571Y-15157857D01*
X11824286Y-15129286D01*
X11810000Y-15086429D01*
X11795714Y-15015000D01*
X11795714Y-14957857D01*
X11810000Y-14886429D01*
X11824286Y-14843571D01*
X11838571Y-14815000D01*
X11867143Y-14772143D01*
X11881428Y-14757857D01*
X12124286Y-14900714D02*
X12124286Y-15100714D01*
X12052857Y-14786429D02*
X11981428Y-15000714D01*
X12167143Y-15000714D01*
X12510000Y-15100714D02*
X12510000Y-14800714D01*
X12638571Y-15100714D02*
X12638571Y-14943571D01*
X12624286Y-14915000D01*
X12595714Y-14900714D01*
X12552857Y-14900714D01*
X12524286Y-14915000D01*
X12510000Y-14929286D01*
X12824286Y-15100714D02*
X12795714Y-15086429D01*
X12781428Y-15072143D01*
X12767143Y-15043571D01*
X12767143Y-14957857D01*
X12781428Y-14929286D01*
X12795714Y-14915000D01*
X12824286Y-14900714D01*
X12867143Y-14900714D01*
X12895714Y-14915000D01*
X12910000Y-14929286D01*
X12924286Y-14957857D01*
X12924286Y-15043571D01*
X12910000Y-15072143D01*
X12895714Y-15086429D01*
X12867143Y-15100714D01*
X12824286Y-15100714D01*
X13095714Y-15100714D02*
X13067143Y-15086429D01*
X13052857Y-15057857D01*
X13052857Y-14800714D01*
X13324286Y-15086429D02*
X13295714Y-15100714D01*
X13238571Y-15100714D01*
X13210000Y-15086429D01*
X13195714Y-15057857D01*
X13195714Y-14943571D01*
X13210000Y-14915000D01*
X13238571Y-14900714D01*
X13295714Y-14900714D01*
X13324286Y-14915000D01*
X13338571Y-14943571D01*
X13338571Y-14972143D01*
X13195714Y-15000714D01*
X13452857Y-15086429D02*
X13481428Y-15100714D01*
X13538571Y-15100714D01*
X13567143Y-15086429D01*
X13581428Y-15057857D01*
X13581428Y-15043571D01*
X13567143Y-15015000D01*
X13538571Y-15000714D01*
X13495714Y-15000714D01*
X13467143Y-14986429D01*
X13452857Y-14957857D01*
X13452857Y-14943571D01*
X13467143Y-14915000D01*
X13495714Y-14900714D01*
X13538571Y-14900714D01*
X13567143Y-14915000D01*
X13681428Y-15215000D02*
X13695714Y-15200714D01*
X13724286Y-15157857D01*
X13738571Y-15129286D01*
X13752857Y-15086429D01*
X13767143Y-15015000D01*
X13767143Y-14957857D01*
X13752857Y-14886429D01*
X13738571Y-14843571D01*
X13724286Y-14815000D01*
X13695714Y-14772143D01*
X13681428Y-14757857D01*
X14224286Y-15215000D02*
X14210000Y-15200714D01*
X14181428Y-15157857D01*
X14167143Y-15129286D01*
X14152857Y-15086429D01*
X14138571Y-15015000D01*
X14138571Y-14957857D01*
X14152857Y-14886429D01*
X14167143Y-14843571D01*
X14181428Y-14815000D01*
X14210000Y-14772143D01*
X14224286Y-14757857D01*
X14338571Y-14900714D02*
X14338571Y-15100714D01*
X14338571Y-14929286D02*
X14352857Y-14915000D01*
X14381428Y-14900714D01*
X14424286Y-14900714D01*
X14452857Y-14915000D01*
X14467143Y-14943571D01*
X14467143Y-15100714D01*
X14652857Y-15100714D02*
X14624286Y-15086429D01*
X14610000Y-15072143D01*
X14595714Y-15043571D01*
X14595714Y-14957857D01*
X14610000Y-14929286D01*
X14624286Y-14915000D01*
X14652857Y-14900714D01*
X14695714Y-14900714D01*
X14724286Y-14915000D01*
X14738571Y-14929286D01*
X14752857Y-14957857D01*
X14752857Y-15043571D01*
X14738571Y-15072143D01*
X14724286Y-15086429D01*
X14695714Y-15100714D01*
X14652857Y-15100714D01*
X14838571Y-14900714D02*
X14952857Y-14900714D01*
X14881428Y-14800714D02*
X14881428Y-15057857D01*
X14895714Y-15086429D01*
X14924286Y-15100714D01*
X14952857Y-15100714D01*
X15281428Y-14900714D02*
X15281428Y-15200714D01*
X15281428Y-14915000D02*
X15310000Y-14900714D01*
X15367143Y-14900714D01*
X15395714Y-14915000D01*
X15410000Y-14929286D01*
X15424286Y-14957857D01*
X15424286Y-15043571D01*
X15410000Y-15072143D01*
X15395714Y-15086429D01*
X15367143Y-15100714D01*
X15310000Y-15100714D01*
X15281428Y-15086429D01*
X15595714Y-15100714D02*
X15567143Y-15086429D01*
X15552857Y-15057857D01*
X15552857Y-14800714D01*
X15838571Y-15100714D02*
X15838571Y-14943571D01*
X15824286Y-14915000D01*
X15795714Y-14900714D01*
X15738571Y-14900714D01*
X15710000Y-14915000D01*
X15838571Y-15086429D02*
X15810000Y-15100714D01*
X15738571Y-15100714D01*
X15710000Y-15086429D01*
X15695714Y-15057857D01*
X15695714Y-15029286D01*
X15710000Y-15000714D01*
X15738571Y-14986429D01*
X15810000Y-14986429D01*
X15838571Y-14972143D01*
X15938571Y-14900714D02*
X16052857Y-14900714D01*
X15981428Y-14800714D02*
X15981428Y-15057857D01*
X15995714Y-15086429D01*
X16024286Y-15100714D01*
X16052857Y-15100714D01*
X16267143Y-15086429D02*
X16238571Y-15100714D01*
X16181428Y-15100714D01*
X16152857Y-15086429D01*
X16138571Y-15057857D01*
X16138571Y-14943571D01*
X16152857Y-14915000D01*
X16181428Y-14900714D01*
X16238571Y-14900714D01*
X16267143Y-14915000D01*
X16281428Y-14943571D01*
X16281428Y-14972143D01*
X16138571Y-15000714D01*
X16538571Y-15100714D02*
X16538571Y-14800714D01*
X16538571Y-15086429D02*
X16510000Y-15100714D01*
X16452857Y-15100714D01*
X16424286Y-15086429D01*
X16410000Y-15072143D01*
X16395714Y-15043571D01*
X16395714Y-14957857D01*
X16410000Y-14929286D01*
X16424286Y-14915000D01*
X16452857Y-14900714D01*
X16510000Y-14900714D01*
X16538571Y-14915000D01*
X16652857Y-15215000D02*
X16667143Y-15200714D01*
X16695714Y-15157857D01*
X16710000Y-15129286D01*
X16724286Y-15086429D01*
X16738571Y-15015000D01*
X16738571Y-14957857D01*
X16724286Y-14886429D01*
X16710000Y-14843571D01*
X16695714Y-14815000D01*
X16667143Y-14772143D01*
X16652857Y-14757857D01*
M02*
