M48
; DRILL file {KiCad (5.1.6)-1} date 11/12/21 17:11:08
; FORMAT={-:-/ absolute / metric / decimal}
; #@! TF.CreationDate,2021-11-12T17:11:08+01:00
; #@! TF.GenerationSoftware,Kicad,Pcbnew,(5.1.6)-1
; #@! TF.FileFunction,Plated,1,2,PTH
FMAT,2
METRIC
T1C0.600
T2C0.800
T3C0.900
T4C1.000
T5C1.100
%
G90
G05
T1
X107.75Y-124.0
X111.45Y-63.2
X112.05Y-107.8
X121.25Y-63.0
X123.5Y-127.25
X131.45Y-63.0
X133.5Y-127.25
X143.75Y-127.25
X177.25Y-52.8
X181.85Y-55.0
X185.05Y-60.6
X185.05Y-85.2
X187.05Y-87.8
X188.25Y-63.6
X188.75Y-73.75
X189.65Y-89.6
X192.05Y-91.4
X223.25Y-77.8
X223.45Y-74.0
T2
X145.85Y-80.24
X145.85Y-90.4
X115.85Y-80.44
X115.85Y-90.6
X143.97Y-75.6
X146.51Y-75.6
X149.05Y-75.6
X105.766Y-114.614
X108.306Y-114.614
X110.846Y-114.614
X135.966Y-114.414
X138.506Y-114.414
X141.046Y-114.414
X149.566Y-99.614
X149.566Y-109.774
X139.166Y-99.414
X139.166Y-109.574
X133.77Y-75.6
X136.31Y-75.6
X138.85Y-75.6
X187.0Y-106.73
X187.0Y-114.35
X189.54Y-106.73
X189.54Y-114.35
X192.08Y-106.73
X192.08Y-114.35
X194.62Y-106.73
X194.62Y-114.35
X197.16Y-106.73
X197.16Y-114.35
X199.7Y-106.73
X199.7Y-114.35
X202.24Y-106.73
X202.24Y-114.35
X204.78Y-106.73
X204.78Y-114.35
X207.32Y-106.73
X207.32Y-114.35
X209.86Y-106.73
X209.86Y-114.35
X212.4Y-106.73
X212.4Y-114.35
X214.94Y-106.73
X214.94Y-114.35
X217.48Y-106.73
X217.48Y-114.35
X220.02Y-106.73
X220.02Y-114.35
X176.45Y-80.24
X176.45Y-90.4
X153.77Y-75.6
X156.31Y-75.6
X158.85Y-75.6
X155.65Y-80.24
X155.65Y-90.4
X124.17Y-75.6
X126.71Y-75.6
X129.25Y-75.6
X103.77Y-75.8
X106.31Y-75.8
X108.85Y-75.8
X105.65Y-80.64
X105.65Y-90.8
X118.766Y-99.814
X118.766Y-109.974
X199.45Y-44.8
X199.45Y-49.8
X207.25Y-121.6
X212.25Y-121.6
X156.366Y-114.614
X158.906Y-114.614
X161.446Y-114.614
X174.57Y-75.6
X177.11Y-75.6
X179.65Y-75.6
X146.366Y-114.414
X148.906Y-114.414
X151.446Y-114.414
X108.966Y-99.814
X108.966Y-109.974
X159.566Y-99.814
X159.566Y-109.974
X135.65Y-80.24
X135.65Y-90.4
X166.25Y-44.8
X166.25Y-49.8
X125.766Y-114.414
X128.306Y-114.414
X130.846Y-114.414
X115.566Y-114.614
X118.106Y-114.614
X120.646Y-114.614
X169.566Y-99.814
X169.566Y-109.974
X126.05Y-80.44
X126.05Y-90.6
X205.85Y-44.8
X205.85Y-49.8
X207.25Y-117.6
X212.25Y-117.6
X166.366Y-114.614
X168.906Y-114.614
X171.446Y-114.614
X163.97Y-75.6
X166.51Y-75.6
X169.05Y-75.6
X115.09Y-42.4
X125.25Y-42.4
X115.09Y-45.6
X125.25Y-45.6
X128.966Y-99.614
X128.966Y-109.774
X173.65Y-44.6
X173.65Y-49.6
X113.97Y-75.6
X116.51Y-75.6
X119.05Y-75.6
X165.85Y-80.24
X165.85Y-90.4
T3
X102.45Y-42.8
X102.45Y-45.3
X109.85Y-42.8
X109.85Y-45.3
T4
X176.75Y-113.75
X176.75Y-125.25
X215.05Y-97.6
X217.55Y-97.6
X220.05Y-97.6
X125.766Y-99.214
X125.766Y-109.374
X179.65Y-80.6
X179.65Y-90.76
X115.566Y-99.414
X115.566Y-109.574
X105.736Y-118.454
X105.736Y-126.074
X105.736Y-128.614
X110.816Y-118.454
X110.816Y-126.074
X110.816Y-128.614
X166.286Y-118.454
X166.286Y-126.074
X166.286Y-128.614
X171.366Y-118.454
X171.366Y-126.074
X171.366Y-128.614
X174.6Y-61.5
X174.6Y-64.04
X174.6Y-71.66
X179.68Y-61.5
X179.68Y-64.04
X179.68Y-71.66
X82.65Y-66.75
X82.65Y-71.75
X82.65Y-76.75
X87.65Y-64.25
X87.65Y-69.25
X87.65Y-74.25
X137.25Y-44.0
X139.75Y-44.0
X142.25Y-44.0
X158.85Y-80.64
X158.85Y-90.8
X82.65Y-102.6
X82.65Y-107.6
X82.65Y-112.6
X87.65Y-100.1
X87.65Y-105.1
X87.65Y-110.1
X156.366Y-99.414
X156.366Y-109.574
X105.766Y-99.414
X105.766Y-109.574
X135.966Y-99.214
X135.966Y-109.374
X133.85Y-61.5
X133.85Y-64.04
X133.85Y-71.66
X138.93Y-61.5
X138.93Y-64.04
X138.93Y-71.66
X104.0Y-61.7
X104.0Y-64.24
X104.0Y-71.86
X109.08Y-61.7
X109.08Y-64.24
X109.08Y-71.86
X154.2Y-61.5
X154.2Y-64.04
X154.2Y-71.66
X159.28Y-61.5
X159.28Y-64.04
X159.28Y-71.66
X82.65Y-120.5
X82.65Y-125.5
X82.65Y-130.5
X87.65Y-118.0
X87.65Y-123.0
X87.65Y-128.0
X166.366Y-99.414
X166.366Y-109.574
X169.05Y-80.64
X169.05Y-90.8
X146.366Y-99.214
X146.366Y-109.374
X119.05Y-80.64
X119.05Y-90.8
X123.9Y-61.5
X123.9Y-64.04
X123.9Y-71.66
X128.98Y-61.5
X128.98Y-64.04
X128.98Y-71.66
X115.686Y-118.454
X115.686Y-126.074
X115.686Y-128.614
X120.766Y-118.454
X120.766Y-126.074
X120.766Y-128.614
X215.05Y-102.6
X217.55Y-102.6
X220.05Y-102.6
X149.65Y-43.8
X152.15Y-43.8
X154.65Y-43.8
X223.05Y-45.2
X223.05Y-55.36
X149.05Y-80.64
X149.05Y-90.8
X136.086Y-118.454
X136.086Y-126.074
X136.086Y-128.614
X141.166Y-118.454
X141.166Y-126.074
X141.166Y-128.614
X125.886Y-118.454
X125.886Y-126.074
X125.886Y-128.614
X130.966Y-118.454
X130.966Y-126.074
X130.966Y-128.614
X82.65Y-84.75
X82.65Y-89.75
X82.65Y-94.75
X87.65Y-82.25
X87.65Y-87.25
X87.65Y-92.25
X138.85Y-80.64
X138.85Y-90.8
X129.25Y-80.64
X129.25Y-90.8
X144.0Y-61.5
X144.0Y-64.04
X144.0Y-71.66
X149.08Y-61.5
X149.08Y-64.04
X149.08Y-71.66
X180.3Y-44.52
X180.3Y-47.06
X180.3Y-49.6
X164.2Y-61.5
X164.2Y-64.04
X164.2Y-71.66
X169.28Y-61.5
X169.28Y-64.04
X169.28Y-71.66
X215.05Y-92.4
X217.55Y-92.4
X220.05Y-92.4
X108.85Y-80.84
X108.85Y-91.0
X82.65Y-48.5
X82.65Y-53.5
X82.65Y-58.5
X87.65Y-46.0
X87.65Y-51.0
X87.65Y-56.0
X156.286Y-118.454
X156.286Y-126.074
X156.286Y-128.614
X161.366Y-118.454
X161.366Y-126.074
X161.366Y-128.614
X113.95Y-61.5
X113.95Y-64.04
X113.95Y-71.66
X119.03Y-61.5
X119.03Y-64.04
X119.03Y-71.66
X146.286Y-118.454
X146.286Y-126.074
X146.286Y-128.614
X151.366Y-118.454
X151.366Y-126.074
X151.366Y-128.614
T5
X213.25Y-47.6
X218.33Y-47.6
T0
M30
