%TF.GenerationSoftware,KiCad,Pcbnew,(5.1.6)-1*%
%TF.CreationDate,2021-11-12T17:11:00+01:00*%
%TF.ProjectId,Relay Control,52656c61-7920-4436-9f6e-74726f6c2e6b,rev?*%
%TF.SameCoordinates,Original*%
%TF.FileFunction,Copper,L1,Top*%
%TF.FilePolarity,Positive*%
%FSLAX46Y46*%
G04 Gerber Fmt 4.6, Leading zero omitted, Abs format (unit mm)*
G04 Created by KiCad (PCBNEW (5.1.6)-1) date 2021-11-12 17:11:00*
%MOMM*%
%LPD*%
G01*
G04 APERTURE LIST*
%TA.AperFunction,ComponentPad*%
%ADD10O,1.600000X1.600000*%
%TD*%
%TA.AperFunction,ComponentPad*%
%ADD11R,1.600000X1.600000*%
%TD*%
%TA.AperFunction,ComponentPad*%
%ADD12C,1.800000*%
%TD*%
%TA.AperFunction,ComponentPad*%
%ADD13R,1.800000X1.800000*%
%TD*%
%TA.AperFunction,ComponentPad*%
%ADD14C,2.000000*%
%TD*%
%TA.AperFunction,ComponentPad*%
%ADD15R,2.000000X2.000000*%
%TD*%
%TA.AperFunction,ComponentPad*%
%ADD16C,1.600000*%
%TD*%
%TA.AperFunction,ComponentPad*%
%ADD17R,1.500000X1.500000*%
%TD*%
%TA.AperFunction,ComponentPad*%
%ADD18C,1.500000*%
%TD*%
%TA.AperFunction,ComponentPad*%
%ADD19O,1.600000X3.000000*%
%TD*%
%TA.AperFunction,ComponentPad*%
%ADD20R,1.600000X3.000000*%
%TD*%
%TA.AperFunction,ComponentPad*%
%ADD21O,2.400000X4.800000*%
%TD*%
%TA.AperFunction,ComponentPad*%
%ADD22R,2.400000X4.800000*%
%TD*%
%TA.AperFunction,ComponentPad*%
%ADD23O,3.600000X2.400000*%
%TD*%
%TA.AperFunction,ComponentPad*%
%ADD24C,0.100000*%
%TD*%
%TA.AperFunction,ComponentPad*%
%ADD25C,1.900000*%
%TD*%
%TA.AperFunction,ComponentPad*%
%ADD26R,1.900000X1.900000*%
%TD*%
%TA.AperFunction,ComponentPad*%
%ADD27O,2.400000X2.400000*%
%TD*%
%TA.AperFunction,ComponentPad*%
%ADD28R,2.400000X2.400000*%
%TD*%
%TA.AperFunction,ViaPad*%
%ADD29C,1.600000*%
%TD*%
%TA.AperFunction,ViaPad*%
%ADD30C,2.000000*%
%TD*%
%TA.AperFunction,Conductor*%
%ADD31C,1.500000*%
%TD*%
%TA.AperFunction,Conductor*%
%ADD32C,0.750000*%
%TD*%
%TA.AperFunction,Conductor*%
%ADD33C,2.000000*%
%TD*%
%TA.AperFunction,Conductor*%
%ADD34C,1.000000*%
%TD*%
G04 APERTURE END LIST*
D10*
%TO.P,U1,28*%
%TO.N,/GPA7*%
X187000000Y-106730000D03*
%TO.P,U1,14*%
%TO.N,N/C*%
X220020000Y-114350000D03*
%TO.P,U1,27*%
%TO.N,/GPA6*%
X189540000Y-106730000D03*
%TO.P,U1,13*%
%TO.N,/SDA*%
X217480000Y-114350000D03*
%TO.P,U1,26*%
%TO.N,/GPA5*%
X192080000Y-106730000D03*
%TO.P,U1,12*%
%TO.N,/SCK*%
X214940000Y-114350000D03*
%TO.P,U1,25*%
%TO.N,/GPA4*%
X194620000Y-106730000D03*
%TO.P,U1,11*%
%TO.N,N/C*%
X212400000Y-114350000D03*
%TO.P,U1,24*%
%TO.N,/GPA3*%
X197160000Y-106730000D03*
%TO.P,U1,10*%
%TO.N,GND*%
X209860000Y-114350000D03*
%TO.P,U1,23*%
%TO.N,/GPA2*%
X199700000Y-106730000D03*
%TO.P,U1,9*%
%TO.N,VCC*%
X207320000Y-114350000D03*
%TO.P,U1,22*%
%TO.N,/GPA1*%
X202240000Y-106730000D03*
%TO.P,U1,8*%
%TO.N,Net-(R17-Pad1)*%
X204780000Y-114350000D03*
%TO.P,U1,21*%
%TO.N,/GPA0*%
X204780000Y-106730000D03*
%TO.P,U1,7*%
%TO.N,/GPB6*%
X202240000Y-114350000D03*
%TO.P,U1,20*%
%TO.N,N/C*%
X207320000Y-106730000D03*
%TO.P,U1,6*%
%TO.N,/GPB5*%
X199700000Y-114350000D03*
%TO.P,U1,19*%
%TO.N,N/C*%
X209860000Y-106730000D03*
%TO.P,U1,5*%
%TO.N,/GPB4*%
X197160000Y-114350000D03*
%TO.P,U1,18*%
%TO.N,VCC*%
X212400000Y-106730000D03*
%TO.P,U1,4*%
%TO.N,/GPB3*%
X194620000Y-114350000D03*
%TO.P,U1,17*%
%TO.N,Net-(JP1-Pad2)*%
X214940000Y-106730000D03*
%TO.P,U1,3*%
%TO.N,/GPB2*%
X192080000Y-114350000D03*
%TO.P,U1,16*%
%TO.N,Net-(JP2-Pad2)*%
X217480000Y-106730000D03*
%TO.P,U1,2*%
%TO.N,/GPB1*%
X189540000Y-114350000D03*
%TO.P,U1,15*%
%TO.N,Net-(JP3-Pad2)*%
X220020000Y-106730000D03*
D11*
%TO.P,U1,1*%
%TO.N,/GPB0*%
X187000000Y-114350000D03*
%TD*%
D12*
%TO.P,U2,3*%
%TO.N,VCC*%
X180300000Y-44520000D03*
%TO.P,U2,2*%
%TO.N,GND*%
X180300000Y-47060000D03*
D13*
%TO.P,U2,1*%
%TO.N,+12V*%
X180300000Y-49600000D03*
%TD*%
D14*
%TO.P,Re15,5*%
%TO.N,/COB6*%
X171366469Y-118454171D03*
%TO.P,Re15,6*%
X166286469Y-118454171D03*
%TO.P,Re15,2*%
%TO.N,+12V*%
X171366469Y-126074171D03*
D15*
%TO.P,Re15,1*%
%TO.N,N/C*%
X171366469Y-128614171D03*
D14*
%TO.P,Re15,9*%
%TO.N,Net-(D15-Pad2)*%
X166286469Y-126074171D03*
%TO.P,Re15,10*%
%TO.N,/NOB6*%
X166286469Y-128614171D03*
%TD*%
%TO.P,Re14,5*%
%TO.N,/COB5*%
X161366469Y-118454171D03*
%TO.P,Re14,6*%
X156286469Y-118454171D03*
%TO.P,Re14,2*%
%TO.N,+12V*%
X161366469Y-126074171D03*
D15*
%TO.P,Re14,1*%
%TO.N,N/C*%
X161366469Y-128614171D03*
D14*
%TO.P,Re14,9*%
%TO.N,Net-(D14-Pad2)*%
X156286469Y-126074171D03*
%TO.P,Re14,10*%
%TO.N,/NOB5*%
X156286469Y-128614171D03*
%TD*%
%TO.P,Re13,5*%
%TO.N,/COB4*%
X151366469Y-118454171D03*
%TO.P,Re13,6*%
X146286469Y-118454171D03*
%TO.P,Re13,2*%
%TO.N,+12V*%
X151366469Y-126074171D03*
D15*
%TO.P,Re13,1*%
%TO.N,N/C*%
X151366469Y-128614171D03*
D14*
%TO.P,Re13,9*%
%TO.N,Net-(D13-Pad2)*%
X146286469Y-126074171D03*
%TO.P,Re13,10*%
%TO.N,/NOB4*%
X146286469Y-128614171D03*
%TD*%
%TO.P,Re12,5*%
%TO.N,/COB3*%
X141166469Y-118454171D03*
%TO.P,Re12,6*%
X136086469Y-118454171D03*
%TO.P,Re12,2*%
%TO.N,+12V*%
X141166469Y-126074171D03*
D15*
%TO.P,Re12,1*%
%TO.N,N/C*%
X141166469Y-128614171D03*
D14*
%TO.P,Re12,9*%
%TO.N,Net-(D12-Pad2)*%
X136086469Y-126074171D03*
%TO.P,Re12,10*%
%TO.N,/NOB3*%
X136086469Y-128614171D03*
%TD*%
%TO.P,Re11,5*%
%TO.N,/COB2*%
X130966469Y-118454171D03*
%TO.P,Re11,6*%
X125886469Y-118454171D03*
%TO.P,Re11,2*%
%TO.N,+12V*%
X130966469Y-126074171D03*
D15*
%TO.P,Re11,1*%
%TO.N,N/C*%
X130966469Y-128614171D03*
D14*
%TO.P,Re11,9*%
%TO.N,Net-(D11-Pad2)*%
X125886469Y-126074171D03*
%TO.P,Re11,10*%
%TO.N,/NOB2*%
X125886469Y-128614171D03*
%TD*%
%TO.P,Re10,5*%
%TO.N,/COB1*%
X120766469Y-118454171D03*
%TO.P,Re10,6*%
X115686469Y-118454171D03*
%TO.P,Re10,2*%
%TO.N,+12V*%
X120766469Y-126074171D03*
D15*
%TO.P,Re10,1*%
%TO.N,N/C*%
X120766469Y-128614171D03*
D14*
%TO.P,Re10,9*%
%TO.N,Net-(D10-Pad2)*%
X115686469Y-126074171D03*
%TO.P,Re10,10*%
%TO.N,/NOB1*%
X115686469Y-128614171D03*
%TD*%
%TO.P,Re9,5*%
%TO.N,/COB0*%
X110816469Y-118454171D03*
%TO.P,Re9,6*%
X105736469Y-118454171D03*
%TO.P,Re9,2*%
%TO.N,+12V*%
X110816469Y-126074171D03*
D15*
%TO.P,Re9,1*%
%TO.N,N/C*%
X110816469Y-128614171D03*
D14*
%TO.P,Re9,9*%
%TO.N,Net-(D9-Pad2)*%
X105736469Y-126074171D03*
%TO.P,Re9,10*%
%TO.N,/NOB0*%
X105736469Y-128614171D03*
%TD*%
%TO.P,Re8,5*%
%TO.N,/COA7*%
X104000000Y-71860000D03*
%TO.P,Re8,6*%
X109080000Y-71860000D03*
%TO.P,Re8,2*%
%TO.N,+12V*%
X104000000Y-64240000D03*
D15*
%TO.P,Re8,1*%
%TO.N,N/C*%
X104000000Y-61700000D03*
D14*
%TO.P,Re8,9*%
%TO.N,Net-(D8-Pad2)*%
X109080000Y-64240000D03*
%TO.P,Re8,10*%
%TO.N,/NOA7*%
X109080000Y-61700000D03*
%TD*%
%TO.P,Re7,5*%
%TO.N,/COA6*%
X113950000Y-71660000D03*
%TO.P,Re7,6*%
X119030000Y-71660000D03*
%TO.P,Re7,2*%
%TO.N,+12V*%
X113950000Y-64040000D03*
D15*
%TO.P,Re7,1*%
%TO.N,N/C*%
X113950000Y-61500000D03*
D14*
%TO.P,Re7,9*%
%TO.N,Net-(D7-Pad2)*%
X119030000Y-64040000D03*
%TO.P,Re7,10*%
%TO.N,/NOA6*%
X119030000Y-61500000D03*
%TD*%
%TO.P,Re6,5*%
%TO.N,/COA5*%
X123900000Y-71660000D03*
%TO.P,Re6,6*%
X128980000Y-71660000D03*
%TO.P,Re6,2*%
%TO.N,+12V*%
X123900000Y-64040000D03*
D15*
%TO.P,Re6,1*%
%TO.N,N/C*%
X123900000Y-61500000D03*
D14*
%TO.P,Re6,9*%
%TO.N,Net-(D6-Pad2)*%
X128980000Y-64040000D03*
%TO.P,Re6,10*%
%TO.N,/NOA5*%
X128980000Y-61500000D03*
%TD*%
%TO.P,Re5,5*%
%TO.N,/COA4*%
X133850000Y-71660000D03*
%TO.P,Re5,6*%
X138930000Y-71660000D03*
%TO.P,Re5,2*%
%TO.N,+12V*%
X133850000Y-64040000D03*
D15*
%TO.P,Re5,1*%
%TO.N,N/C*%
X133850000Y-61500000D03*
D14*
%TO.P,Re5,9*%
%TO.N,Net-(D5-Pad2)*%
X138930000Y-64040000D03*
%TO.P,Re5,10*%
%TO.N,/NOA4*%
X138930000Y-61500000D03*
%TD*%
%TO.P,Re4,5*%
%TO.N,/COA3*%
X144000000Y-71660000D03*
%TO.P,Re4,6*%
X149080000Y-71660000D03*
%TO.P,Re4,2*%
%TO.N,+12V*%
X144000000Y-64040000D03*
D15*
%TO.P,Re4,1*%
%TO.N,N/C*%
X144000000Y-61500000D03*
D14*
%TO.P,Re4,9*%
%TO.N,Net-(D4-Pad2)*%
X149080000Y-64040000D03*
%TO.P,Re4,10*%
%TO.N,/NOA3*%
X149080000Y-61500000D03*
%TD*%
%TO.P,Re3,5*%
%TO.N,/COA2*%
X154200000Y-71660000D03*
%TO.P,Re3,6*%
X159280000Y-71660000D03*
%TO.P,Re3,2*%
%TO.N,+12V*%
X154200000Y-64040000D03*
D15*
%TO.P,Re3,1*%
%TO.N,N/C*%
X154200000Y-61500000D03*
D14*
%TO.P,Re3,9*%
%TO.N,Net-(D3-Pad2)*%
X159280000Y-64040000D03*
%TO.P,Re3,10*%
%TO.N,/NOA2*%
X159280000Y-61500000D03*
%TD*%
%TO.P,Re2,5*%
%TO.N,/COA1*%
X164200000Y-71660000D03*
%TO.P,Re2,6*%
X169280000Y-71660000D03*
%TO.P,Re2,2*%
%TO.N,+12V*%
X164200000Y-64040000D03*
D15*
%TO.P,Re2,1*%
%TO.N,N/C*%
X164200000Y-61500000D03*
D14*
%TO.P,Re2,9*%
%TO.N,Net-(D2-Pad2)*%
X169280000Y-64040000D03*
%TO.P,Re2,10*%
%TO.N,/NOA1*%
X169280000Y-61500000D03*
%TD*%
%TO.P,Re1,5*%
%TO.N,/COA0*%
X174600000Y-71660000D03*
%TO.P,Re1,6*%
X179680000Y-71660000D03*
%TO.P,Re1,2*%
%TO.N,+12V*%
X174600000Y-64040000D03*
D15*
%TO.P,Re1,1*%
%TO.N,N/C*%
X174600000Y-61500000D03*
D14*
%TO.P,Re1,9*%
%TO.N,Net-(D1-Pad2)*%
X179680000Y-64040000D03*
%TO.P,Re1,10*%
%TO.N,/NOA0*%
X179680000Y-61500000D03*
%TD*%
D10*
%TO.P,R17,2*%
%TO.N,Net-(D18-Pad2)*%
X115090000Y-45600000D03*
D16*
%TO.P,R17,1*%
%TO.N,Net-(R17-Pad1)*%
X125250000Y-45600000D03*
%TD*%
D10*
%TO.P,R16,2*%
%TO.N,Net-(D17-Pad2)*%
X115090000Y-42400000D03*
D16*
%TO.P,R16,1*%
%TO.N,VCC*%
X125250000Y-42400000D03*
%TD*%
D10*
%TO.P,R15,2*%
%TO.N,Net-(Q15-Pad2)*%
X169566469Y-109974171D03*
D16*
%TO.P,R15,1*%
%TO.N,/GPB6*%
X169566469Y-99814171D03*
%TD*%
D10*
%TO.P,R14,2*%
%TO.N,Net-(Q14-Pad2)*%
X159566469Y-109974171D03*
D16*
%TO.P,R14,1*%
%TO.N,/GPB5*%
X159566469Y-99814171D03*
%TD*%
D10*
%TO.P,R13,2*%
%TO.N,Net-(Q13-Pad2)*%
X149566469Y-109774171D03*
D16*
%TO.P,R13,1*%
%TO.N,/GPB4*%
X149566469Y-99614171D03*
%TD*%
D10*
%TO.P,R12,2*%
%TO.N,Net-(Q12-Pad2)*%
X139166469Y-109574171D03*
D16*
%TO.P,R12,1*%
%TO.N,/GPB3*%
X139166469Y-99414171D03*
%TD*%
D10*
%TO.P,R11,2*%
%TO.N,Net-(Q11-Pad2)*%
X128966469Y-109774171D03*
D16*
%TO.P,R11,1*%
%TO.N,/GPB2*%
X128966469Y-99614171D03*
%TD*%
D10*
%TO.P,R10,2*%
%TO.N,Net-(Q10-Pad2)*%
X118766469Y-109974171D03*
D16*
%TO.P,R10,1*%
%TO.N,/GPB1*%
X118766469Y-99814171D03*
%TD*%
D10*
%TO.P,R9,2*%
%TO.N,Net-(Q9-Pad2)*%
X108966469Y-109974171D03*
D16*
%TO.P,R9,1*%
%TO.N,/GPB0*%
X108966469Y-99814171D03*
%TD*%
D10*
%TO.P,R8,2*%
%TO.N,Net-(Q8-Pad2)*%
X105650000Y-80640000D03*
D16*
%TO.P,R8,1*%
%TO.N,/GPA7*%
X105650000Y-90800000D03*
%TD*%
D10*
%TO.P,R7,2*%
%TO.N,Net-(Q7-Pad2)*%
X115850000Y-80440000D03*
D16*
%TO.P,R7,1*%
%TO.N,/GPA6*%
X115850000Y-90600000D03*
%TD*%
D10*
%TO.P,R6,2*%
%TO.N,Net-(Q6-Pad2)*%
X126050000Y-80440000D03*
D16*
%TO.P,R6,1*%
%TO.N,/GPA5*%
X126050000Y-90600000D03*
%TD*%
D10*
%TO.P,R5,2*%
%TO.N,Net-(Q5-Pad2)*%
X135650000Y-80240000D03*
D16*
%TO.P,R5,1*%
%TO.N,/GPA4*%
X135650000Y-90400000D03*
%TD*%
D10*
%TO.P,R4,2*%
%TO.N,Net-(Q4-Pad2)*%
X145850000Y-80240000D03*
D16*
%TO.P,R4,1*%
%TO.N,/GPA3*%
X145850000Y-90400000D03*
%TD*%
D10*
%TO.P,R3,2*%
%TO.N,Net-(Q3-Pad2)*%
X155650000Y-80240000D03*
D16*
%TO.P,R3,1*%
%TO.N,/GPA2*%
X155650000Y-90400000D03*
%TD*%
D10*
%TO.P,R2,2*%
%TO.N,Net-(Q2-Pad2)*%
X165850000Y-80240000D03*
D16*
%TO.P,R2,1*%
%TO.N,/GPA1*%
X165850000Y-90400000D03*
%TD*%
D10*
%TO.P,R1,2*%
%TO.N,Net-(Q1-Pad2)*%
X176450000Y-80240000D03*
D16*
%TO.P,R1,1*%
%TO.N,/GPA0*%
X176450000Y-90400000D03*
%TD*%
D17*
%TO.P,Q15,1*%
%TO.N,Net-(D15-Pad2)*%
X166366469Y-114614171D03*
D18*
%TO.P,Q15,3*%
%TO.N,GND*%
X171446469Y-114614171D03*
%TO.P,Q15,2*%
%TO.N,Net-(Q15-Pad2)*%
X168906469Y-114614171D03*
%TD*%
D17*
%TO.P,Q14,1*%
%TO.N,Net-(D14-Pad2)*%
X156366469Y-114614171D03*
D18*
%TO.P,Q14,3*%
%TO.N,GND*%
X161446469Y-114614171D03*
%TO.P,Q14,2*%
%TO.N,Net-(Q14-Pad2)*%
X158906469Y-114614171D03*
%TD*%
D17*
%TO.P,Q13,1*%
%TO.N,Net-(D13-Pad2)*%
X146366469Y-114414171D03*
D18*
%TO.P,Q13,3*%
%TO.N,GND*%
X151446469Y-114414171D03*
%TO.P,Q13,2*%
%TO.N,Net-(Q13-Pad2)*%
X148906469Y-114414171D03*
%TD*%
D17*
%TO.P,Q12,1*%
%TO.N,Net-(D12-Pad2)*%
X135966469Y-114414171D03*
D18*
%TO.P,Q12,3*%
%TO.N,GND*%
X141046469Y-114414171D03*
%TO.P,Q12,2*%
%TO.N,Net-(Q12-Pad2)*%
X138506469Y-114414171D03*
%TD*%
D17*
%TO.P,Q11,1*%
%TO.N,Net-(D11-Pad2)*%
X125766469Y-114414171D03*
D18*
%TO.P,Q11,3*%
%TO.N,GND*%
X130846469Y-114414171D03*
%TO.P,Q11,2*%
%TO.N,Net-(Q11-Pad2)*%
X128306469Y-114414171D03*
%TD*%
D17*
%TO.P,Q10,1*%
%TO.N,Net-(D10-Pad2)*%
X115566469Y-114614171D03*
D18*
%TO.P,Q10,3*%
%TO.N,GND*%
X120646469Y-114614171D03*
%TO.P,Q10,2*%
%TO.N,Net-(Q10-Pad2)*%
X118106469Y-114614171D03*
%TD*%
D17*
%TO.P,Q9,1*%
%TO.N,Net-(D9-Pad2)*%
X105766469Y-114614171D03*
D18*
%TO.P,Q9,3*%
%TO.N,GND*%
X110846469Y-114614171D03*
%TO.P,Q9,2*%
%TO.N,Net-(Q9-Pad2)*%
X108306469Y-114614171D03*
%TD*%
D17*
%TO.P,Q8,1*%
%TO.N,Net-(D8-Pad2)*%
X108850000Y-75800000D03*
D18*
%TO.P,Q8,3*%
%TO.N,GND*%
X103770000Y-75800000D03*
%TO.P,Q8,2*%
%TO.N,Net-(Q8-Pad2)*%
X106310000Y-75800000D03*
%TD*%
D17*
%TO.P,Q7,1*%
%TO.N,Net-(D7-Pad2)*%
X119050000Y-75600000D03*
D18*
%TO.P,Q7,3*%
%TO.N,GND*%
X113970000Y-75600000D03*
%TO.P,Q7,2*%
%TO.N,Net-(Q7-Pad2)*%
X116510000Y-75600000D03*
%TD*%
D17*
%TO.P,Q6,1*%
%TO.N,Net-(D6-Pad2)*%
X129250000Y-75600000D03*
D18*
%TO.P,Q6,3*%
%TO.N,GND*%
X124170000Y-75600000D03*
%TO.P,Q6,2*%
%TO.N,Net-(Q6-Pad2)*%
X126710000Y-75600000D03*
%TD*%
D17*
%TO.P,Q5,1*%
%TO.N,Net-(D5-Pad2)*%
X138850000Y-75600000D03*
D18*
%TO.P,Q5,3*%
%TO.N,GND*%
X133770000Y-75600000D03*
%TO.P,Q5,2*%
%TO.N,Net-(Q5-Pad2)*%
X136310000Y-75600000D03*
%TD*%
D17*
%TO.P,Q4,1*%
%TO.N,Net-(D4-Pad2)*%
X149050000Y-75600000D03*
D18*
%TO.P,Q4,3*%
%TO.N,GND*%
X143970000Y-75600000D03*
%TO.P,Q4,2*%
%TO.N,Net-(Q4-Pad2)*%
X146510000Y-75600000D03*
%TD*%
D17*
%TO.P,Q3,1*%
%TO.N,Net-(D3-Pad2)*%
X158850000Y-75600000D03*
D18*
%TO.P,Q3,3*%
%TO.N,GND*%
X153770000Y-75600000D03*
%TO.P,Q3,2*%
%TO.N,Net-(Q3-Pad2)*%
X156310000Y-75600000D03*
%TD*%
D17*
%TO.P,Q2,1*%
%TO.N,Net-(D2-Pad2)*%
X169050000Y-75600000D03*
D18*
%TO.P,Q2,3*%
%TO.N,GND*%
X163970000Y-75600000D03*
%TO.P,Q2,2*%
%TO.N,Net-(Q2-Pad2)*%
X166510000Y-75600000D03*
%TD*%
D17*
%TO.P,Q1,1*%
%TO.N,Net-(D1-Pad2)*%
X179650000Y-75600000D03*
D18*
%TO.P,Q1,3*%
%TO.N,GND*%
X174570000Y-75600000D03*
%TO.P,Q1,2*%
%TO.N,Net-(Q1-Pad2)*%
X177110000Y-75600000D03*
%TD*%
D19*
%TO.P,JP3,3*%
%TO.N,VCC*%
X215050000Y-102600000D03*
%TO.P,JP3,2*%
%TO.N,Net-(JP3-Pad2)*%
X217550000Y-102600000D03*
D20*
%TO.P,JP3,1*%
%TO.N,GND*%
X220050000Y-102600000D03*
%TD*%
D19*
%TO.P,JP2,3*%
%TO.N,VCC*%
X215050000Y-97600000D03*
%TO.P,JP2,2*%
%TO.N,Net-(JP2-Pad2)*%
X217550000Y-97600000D03*
D20*
%TO.P,JP2,1*%
%TO.N,GND*%
X220050000Y-97600000D03*
%TD*%
D19*
%TO.P,JP1,3*%
%TO.N,VCC*%
X215050000Y-92400000D03*
%TO.P,JP1,2*%
%TO.N,Net-(JP1-Pad2)*%
X217550000Y-92400000D03*
D20*
%TO.P,JP1,1*%
%TO.N,GND*%
X220050000Y-92400000D03*
%TD*%
D21*
%TO.P,J8,2*%
%TO.N,Net-(D16-Pad2)*%
X218330000Y-47600000D03*
D22*
%TO.P,J8,1*%
%TO.N,GND*%
X213250000Y-47600000D03*
%TD*%
D19*
%TO.P,J7,3*%
%TO.N,/SDA*%
X142250000Y-44000000D03*
%TO.P,J7,2*%
%TO.N,/SCK*%
X139750000Y-44000000D03*
D20*
%TO.P,J7,1*%
%TO.N,GND*%
X137250000Y-44000000D03*
%TD*%
D19*
%TO.P,J6,3*%
%TO.N,/SDA*%
X154650000Y-43800000D03*
%TO.P,J6,2*%
%TO.N,/SCK*%
X152150000Y-43800000D03*
D20*
%TO.P,J6,1*%
%TO.N,GND*%
X149650000Y-43800000D03*
%TD*%
D23*
%TO.P,J5,2*%
%TO.N,/NOB4*%
X82650000Y-120500000D03*
%TA.AperFunction,ComponentPad*%
D24*
%TO.P,J5,1*%
%TO.N,/COB4*%
G36*
X85850000Y-119200000D02*
G01*
X85850000Y-116800000D01*
X89450000Y-116800000D01*
X89450000Y-119200000D01*
X85850000Y-119200000D01*
G37*
%TD.AperFunction*%
D23*
%TO.P,J5,3*%
%TO.N,/COB5*%
X87650000Y-123000000D03*
%TO.P,J5,4*%
%TO.N,/NOB5*%
X82650000Y-125500000D03*
%TO.P,J5,5*%
%TO.N,/COB6*%
X87650000Y-128000000D03*
%TO.P,J5,6*%
%TO.N,/NOB6*%
X82650000Y-130500000D03*
%TD*%
%TO.P,J4,2*%
%TO.N,/NOB1*%
X82650000Y-102600000D03*
%TA.AperFunction,ComponentPad*%
D24*
%TO.P,J4,1*%
%TO.N,/COB1*%
G36*
X85850000Y-101300000D02*
G01*
X85850000Y-98900000D01*
X89450000Y-98900000D01*
X89450000Y-101300000D01*
X85850000Y-101300000D01*
G37*
%TD.AperFunction*%
D23*
%TO.P,J4,3*%
%TO.N,/COB2*%
X87650000Y-105100000D03*
%TO.P,J4,4*%
%TO.N,/NOB2*%
X82650000Y-107600000D03*
%TO.P,J4,5*%
%TO.N,/COB3*%
X87650000Y-110100000D03*
%TO.P,J4,6*%
%TO.N,/NOB3*%
X82650000Y-112600000D03*
%TD*%
%TO.P,J3,2*%
%TO.N,/NOA6*%
X82650000Y-84750000D03*
%TA.AperFunction,ComponentPad*%
D24*
%TO.P,J3,1*%
%TO.N,/COA6*%
G36*
X85850000Y-83450000D02*
G01*
X85850000Y-81050000D01*
X89450000Y-81050000D01*
X89450000Y-83450000D01*
X85850000Y-83450000D01*
G37*
%TD.AperFunction*%
D23*
%TO.P,J3,3*%
%TO.N,/COA7*%
X87650000Y-87250000D03*
%TO.P,J3,4*%
%TO.N,/NOA7*%
X82650000Y-89750000D03*
%TO.P,J3,5*%
%TO.N,/COB0*%
X87650000Y-92250000D03*
%TO.P,J3,6*%
%TO.N,/NOB0*%
X82650000Y-94750000D03*
%TD*%
%TO.P,J2,2*%
%TO.N,/NOA3*%
X82650000Y-66750000D03*
%TA.AperFunction,ComponentPad*%
D24*
%TO.P,J2,1*%
%TO.N,/COA3*%
G36*
X85850000Y-65450000D02*
G01*
X85850000Y-63050000D01*
X89450000Y-63050000D01*
X89450000Y-65450000D01*
X85850000Y-65450000D01*
G37*
%TD.AperFunction*%
D23*
%TO.P,J2,3*%
%TO.N,/COA4*%
X87650000Y-69250000D03*
%TO.P,J2,4*%
%TO.N,/NOA4*%
X82650000Y-71750000D03*
%TO.P,J2,5*%
%TO.N,/COA5*%
X87650000Y-74250000D03*
%TO.P,J2,6*%
%TO.N,/NOA5*%
X82650000Y-76750000D03*
%TD*%
%TO.P,J1,2*%
%TO.N,/NOA0*%
X82650000Y-48500000D03*
%TA.AperFunction,ComponentPad*%
D24*
%TO.P,J1,1*%
%TO.N,/COA0*%
G36*
X85850000Y-47200000D02*
G01*
X85850000Y-44800000D01*
X89450000Y-44800000D01*
X89450000Y-47200000D01*
X85850000Y-47200000D01*
G37*
%TD.AperFunction*%
D23*
%TO.P,J1,3*%
%TO.N,/COA1*%
X87650000Y-51000000D03*
%TO.P,J1,4*%
%TO.N,/NOA1*%
X82650000Y-53500000D03*
%TO.P,J1,5*%
%TO.N,/COA2*%
X87650000Y-56000000D03*
%TO.P,J1,6*%
%TO.N,/NOA2*%
X82650000Y-58500000D03*
%TD*%
D25*
%TO.P,D18,1*%
%TO.N,GND*%
X109850000Y-45300000D03*
D26*
%TO.P,D18,2*%
%TO.N,Net-(D18-Pad2)*%
X109850000Y-42800000D03*
%TD*%
D25*
%TO.P,D17,1*%
%TO.N,GND*%
X102450000Y-45300000D03*
D26*
%TO.P,D17,2*%
%TO.N,Net-(D17-Pad2)*%
X102450000Y-42800000D03*
%TD*%
D27*
%TO.P,D16,2*%
%TO.N,Net-(D16-Pad2)*%
X223050000Y-55360000D03*
D28*
%TO.P,D16,1*%
%TO.N,+12V*%
X223050000Y-45200000D03*
%TD*%
D27*
%TO.P,D15,2*%
%TO.N,Net-(D15-Pad2)*%
X166366469Y-109574171D03*
D28*
%TO.P,D15,1*%
%TO.N,+12V*%
X166366469Y-99414171D03*
%TD*%
D27*
%TO.P,D14,2*%
%TO.N,Net-(D14-Pad2)*%
X156366469Y-109574171D03*
D28*
%TO.P,D14,1*%
%TO.N,+12V*%
X156366469Y-99414171D03*
%TD*%
D27*
%TO.P,D13,2*%
%TO.N,Net-(D13-Pad2)*%
X146366469Y-109374171D03*
D28*
%TO.P,D13,1*%
%TO.N,+12V*%
X146366469Y-99214171D03*
%TD*%
D27*
%TO.P,D12,2*%
%TO.N,Net-(D12-Pad2)*%
X135966469Y-109374171D03*
D28*
%TO.P,D12,1*%
%TO.N,+12V*%
X135966469Y-99214171D03*
%TD*%
D27*
%TO.P,D11,2*%
%TO.N,Net-(D11-Pad2)*%
X125766469Y-109374171D03*
D28*
%TO.P,D11,1*%
%TO.N,+12V*%
X125766469Y-99214171D03*
%TD*%
D27*
%TO.P,D10,2*%
%TO.N,Net-(D10-Pad2)*%
X115566469Y-109574171D03*
D28*
%TO.P,D10,1*%
%TO.N,+12V*%
X115566469Y-99414171D03*
%TD*%
D27*
%TO.P,D9,2*%
%TO.N,Net-(D9-Pad2)*%
X105766469Y-109574171D03*
D28*
%TO.P,D9,1*%
%TO.N,+12V*%
X105766469Y-99414171D03*
%TD*%
D27*
%TO.P,D8,2*%
%TO.N,Net-(D8-Pad2)*%
X108850000Y-80840000D03*
D28*
%TO.P,D8,1*%
%TO.N,+12V*%
X108850000Y-91000000D03*
%TD*%
D27*
%TO.P,D7,2*%
%TO.N,Net-(D7-Pad2)*%
X119050000Y-80640000D03*
D28*
%TO.P,D7,1*%
%TO.N,+12V*%
X119050000Y-90800000D03*
%TD*%
D27*
%TO.P,D6,2*%
%TO.N,Net-(D6-Pad2)*%
X129250000Y-80640000D03*
D28*
%TO.P,D6,1*%
%TO.N,+12V*%
X129250000Y-90800000D03*
%TD*%
D27*
%TO.P,D5,2*%
%TO.N,Net-(D5-Pad2)*%
X138850000Y-80640000D03*
D28*
%TO.P,D5,1*%
%TO.N,+12V*%
X138850000Y-90800000D03*
%TD*%
D27*
%TO.P,D4,2*%
%TO.N,Net-(D4-Pad2)*%
X149050000Y-80640000D03*
D28*
%TO.P,D4,1*%
%TO.N,+12V*%
X149050000Y-90800000D03*
%TD*%
D27*
%TO.P,D3,2*%
%TO.N,Net-(D3-Pad2)*%
X158850000Y-80640000D03*
D28*
%TO.P,D3,1*%
%TO.N,+12V*%
X158850000Y-90800000D03*
%TD*%
D27*
%TO.P,D2,2*%
%TO.N,Net-(D2-Pad2)*%
X169050000Y-80640000D03*
D28*
%TO.P,D2,1*%
%TO.N,+12V*%
X169050000Y-90800000D03*
%TD*%
D27*
%TO.P,D1,2*%
%TO.N,Net-(D1-Pad2)*%
X179650000Y-80600000D03*
D28*
%TO.P,D1,1*%
%TO.N,+12V*%
X179650000Y-90760000D03*
%TD*%
D14*
%TO.P,C6,2*%
%TO.N,GND*%
X212250000Y-117600000D03*
%TO.P,C6,1*%
%TO.N,VCC*%
X207250000Y-117600000D03*
%TD*%
%TO.P,C5,2*%
%TO.N,GND*%
X166250000Y-49800000D03*
%TO.P,C5,1*%
%TO.N,VCC*%
X166250000Y-44800000D03*
%TD*%
D16*
%TO.P,C4,2*%
%TO.N,GND*%
X173650000Y-49600000D03*
D11*
%TO.P,C4,1*%
%TO.N,VCC*%
X173650000Y-44600000D03*
%TD*%
D14*
%TO.P,C3,2*%
%TO.N,GND*%
X199450000Y-49800000D03*
%TO.P,C3,1*%
%TO.N,+12V*%
X199450000Y-44800000D03*
%TD*%
D16*
%TO.P,C2,2*%
%TO.N,GND*%
X205850000Y-49800000D03*
D11*
%TO.P,C2,1*%
%TO.N,+12V*%
X205850000Y-44800000D03*
%TD*%
D14*
%TO.P,C1,2*%
%TO.N,GND*%
X212250000Y-121600000D03*
%TO.P,C1,1*%
%TO.N,VCC*%
X207250000Y-121600000D03*
%TD*%
D29*
%TO.N,+12V*%
X188750000Y-73750000D03*
X188250000Y-63600000D03*
D30*
X176750000Y-125250000D03*
X176750000Y-113750000D03*
D29*
%TO.N,/COA5*%
X131450000Y-63000000D03*
%TO.N,/COA6*%
X121250000Y-63000000D03*
%TO.N,/COA7*%
X111450000Y-63200000D03*
%TO.N,/NOB1*%
X107750000Y-124000000D03*
%TO.N,/COB1*%
X112050000Y-107800000D03*
%TO.N,/COB2*%
X123500000Y-127250000D03*
%TO.N,/COB3*%
X133500000Y-127250000D03*
%TO.N,/COB4*%
X143750000Y-127250000D03*
%TO.N,/GPA5*%
X192050000Y-91400000D03*
%TO.N,/GPA6*%
X189650000Y-89600000D03*
%TO.N,/GPA7*%
X187050000Y-87800000D03*
%TO.N,Net-(R17-Pad1)*%
X185050000Y-60600000D03*
X185050000Y-85200000D03*
%TO.N,/SDA*%
X177250000Y-52800000D03*
X223250000Y-77800000D03*
%TO.N,/SCK*%
X181850000Y-55000000D03*
X223450000Y-74000000D03*
%TD*%
D31*
%TO.N,GND*%
X103770000Y-75800000D02*
X103770000Y-75280000D01*
X103770000Y-75280000D02*
X106650000Y-72400000D01*
X106650000Y-72400000D02*
X106650000Y-69800000D01*
X106650000Y-69800000D02*
X108050000Y-68400000D01*
X174570000Y-75600000D02*
X174570000Y-75280000D01*
X174570000Y-75280000D02*
X177050000Y-72800000D01*
X177050000Y-72800000D02*
X177050000Y-68400000D01*
X177050000Y-68400000D02*
X183050000Y-68400000D01*
X163970000Y-75600000D02*
X163970000Y-75179998D01*
X166650000Y-72499998D02*
X166650000Y-68400000D01*
X163970000Y-75179998D02*
X166650000Y-72499998D01*
X166650000Y-68400000D02*
X177050000Y-68400000D01*
X153770000Y-75600000D02*
X153770000Y-75080000D01*
X153770000Y-75080000D02*
X154850000Y-74000000D01*
X154850000Y-74000000D02*
X154960001Y-74000000D01*
X154960001Y-74000000D02*
X155360001Y-73600000D01*
X155360001Y-73600000D02*
X155650000Y-73600000D01*
X156650000Y-72600000D02*
X156650000Y-68400000D01*
X155650000Y-73600000D02*
X156650000Y-72600000D01*
X156650000Y-68400000D02*
X166650000Y-68400000D01*
X143970000Y-75600000D02*
X143970000Y-75080000D01*
X143970000Y-75080000D02*
X146450000Y-72600000D01*
X146450000Y-72600000D02*
X146450000Y-68400000D01*
X146450000Y-68400000D02*
X156650000Y-68400000D01*
X133770000Y-75600000D02*
X133770000Y-75080000D01*
X133770000Y-75080000D02*
X135850000Y-73000000D01*
X135850000Y-73000000D02*
X136250000Y-73000000D01*
X136250000Y-73000000D02*
X136250000Y-68600000D01*
X136250000Y-68600000D02*
X136450000Y-68400000D01*
X136450000Y-68400000D02*
X146450000Y-68400000D01*
X124170000Y-75600000D02*
X124170000Y-74880000D01*
X126450000Y-72600000D02*
X126450000Y-68400000D01*
X124170000Y-74880000D02*
X126450000Y-72600000D01*
X126450000Y-68400000D02*
X136450000Y-68400000D01*
X113970000Y-75600000D02*
X113970000Y-74480000D01*
X113970000Y-74480000D02*
X114650000Y-73800000D01*
X114650000Y-73800000D02*
X115000001Y-73800000D01*
X116450000Y-72350001D02*
X116450000Y-68400000D01*
X115000001Y-73800000D02*
X116450000Y-72350001D01*
X108050000Y-68400000D02*
X116450000Y-68400000D01*
X116450000Y-68400000D02*
X126450000Y-68400000D01*
D32*
X137250000Y-44000000D02*
X137250000Y-41800000D01*
X137250000Y-41800000D02*
X138250000Y-40800000D01*
X138250000Y-40800000D02*
X147050000Y-40800000D01*
X147050000Y-40800000D02*
X149650000Y-43400000D01*
D33*
X199650000Y-50000000D02*
X199850000Y-49800000D01*
D32*
X110846469Y-114614171D02*
X110864171Y-114614171D01*
X110864171Y-114614171D02*
X113050000Y-116800000D01*
X113050000Y-119400000D02*
X114650000Y-121000000D01*
X113050000Y-116800000D02*
X113050000Y-119400000D01*
X120646469Y-114614171D02*
X120646469Y-114803531D01*
X118450000Y-117000000D02*
X118450000Y-121000000D01*
X120646469Y-114803531D02*
X118450000Y-117000000D01*
D33*
X118450000Y-121000000D02*
X114650000Y-121000000D01*
D32*
X130846469Y-114414171D02*
X130846469Y-114803531D01*
X128450000Y-117200000D02*
X128450000Y-121000000D01*
X130846469Y-114803531D02*
X128450000Y-117200000D01*
D33*
X128450000Y-121000000D02*
X118450000Y-121000000D01*
D32*
X141046469Y-114414171D02*
X141046469Y-114803531D01*
X138650000Y-117200000D02*
X138650000Y-121000000D01*
X141046469Y-114803531D02*
X138650000Y-117200000D01*
D33*
X138650000Y-121000000D02*
X128450000Y-121000000D01*
D32*
X151446469Y-114414171D02*
X151446469Y-114603531D01*
X151446469Y-114603531D02*
X148450000Y-117600000D01*
X148450000Y-117600000D02*
X148450000Y-121000000D01*
D33*
X148450000Y-121000000D02*
X138650000Y-121000000D01*
D32*
X161446469Y-114614171D02*
X161446469Y-115003531D01*
X161446469Y-115003531D02*
X159250000Y-117200000D01*
X159250000Y-117200000D02*
X159250000Y-121000000D01*
D33*
X159250000Y-121000000D02*
X148450000Y-121000000D01*
D32*
X171446469Y-114614171D02*
X171446469Y-114803531D01*
X168450000Y-117800000D02*
X168450000Y-121000000D01*
X171446469Y-114803531D02*
X168450000Y-117800000D01*
D33*
X168450000Y-121000000D02*
X159250000Y-121000000D01*
X213250000Y-47600000D02*
X213250000Y-66400000D01*
X213250000Y-66400000D02*
X210250000Y-69400000D01*
X210250000Y-69400000D02*
X182450000Y-69400000D01*
X213250000Y-66400000D02*
X217450000Y-66400000D01*
X217450000Y-66400000D02*
X220850000Y-69800000D01*
X220850000Y-69800000D02*
X220850000Y-103600000D01*
X220850000Y-103600000D02*
X222050000Y-103600000D01*
X210450000Y-110600000D02*
X209650000Y-111400000D01*
X209650000Y-111400000D02*
X209650000Y-116200000D01*
X209650000Y-116200000D02*
X211050000Y-117600000D01*
X211050000Y-117600000D02*
X212450000Y-117600000D01*
X212450000Y-117600000D02*
X212450000Y-121800000D01*
X212250000Y-121600000D02*
X212250000Y-126000000D01*
X212250000Y-126000000D02*
X211450000Y-126800000D01*
X211450000Y-126800000D02*
X205250000Y-126800000D01*
X199450000Y-121000000D02*
X168450000Y-121000000D01*
X205250000Y-126800000D02*
X199450000Y-121000000D01*
X222050000Y-103600000D02*
X222050000Y-104000000D01*
X222050000Y-104000000D02*
X222450000Y-104400000D01*
X222450000Y-104400000D02*
X222450000Y-108000000D01*
X219850000Y-110600000D02*
X210450000Y-110600000D01*
X222450000Y-108000000D02*
X219850000Y-110600000D01*
D34*
%TO.N,VCC*%
X125250000Y-42400000D02*
X125250000Y-41800000D01*
X125250000Y-41800000D02*
X127650000Y-39400000D01*
X127650000Y-39400000D02*
X161850000Y-39400000D01*
X161850000Y-39400000D02*
X166250000Y-43800000D01*
X166250000Y-43800000D02*
X166250000Y-44800000D01*
%TO.N,+12V*%
X104000000Y-64240000D02*
X104000000Y-64550000D01*
X104000000Y-64550000D02*
X106050000Y-66600000D01*
X174600000Y-65950000D02*
X175250000Y-66600000D01*
X174600000Y-64040000D02*
X174600000Y-65950000D01*
X175250000Y-66600000D02*
X182650000Y-66600000D01*
X164200000Y-66550000D02*
X164250000Y-66600000D01*
X164200000Y-64040000D02*
X164200000Y-66550000D01*
X164250000Y-66600000D02*
X175250000Y-66600000D01*
X154200000Y-66550000D02*
X154250000Y-66600000D01*
X154200000Y-64040000D02*
X154200000Y-66550000D01*
X154250000Y-66600000D02*
X164250000Y-66600000D01*
X144000000Y-64040000D02*
X144000000Y-66250000D01*
X144000000Y-66250000D02*
X143650000Y-66600000D01*
X143650000Y-66600000D02*
X154250000Y-66600000D01*
X133850000Y-66400000D02*
X133650000Y-66600000D01*
X133850000Y-64040000D02*
X133850000Y-66400000D01*
X133650000Y-66600000D02*
X143650000Y-66600000D01*
X123900000Y-64040000D02*
X123900000Y-66550000D01*
X123900000Y-66550000D02*
X123850000Y-66600000D01*
X123850000Y-66600000D02*
X133650000Y-66600000D01*
X113950000Y-66500000D02*
X114050000Y-66600000D01*
X113950000Y-64040000D02*
X113950000Y-66500000D01*
X106050000Y-66600000D02*
X114050000Y-66600000D01*
X114050000Y-66600000D02*
X123850000Y-66600000D01*
D33*
X221850000Y-40200000D02*
X208050000Y-40200000D01*
X208050000Y-40200000D02*
X206050000Y-42200000D01*
X206050000Y-42200000D02*
X206050000Y-44600000D01*
X206050000Y-44600000D02*
X205850000Y-44800000D01*
X205850000Y-44800000D02*
X199250000Y-44800000D01*
X199250000Y-44800000D02*
X186050000Y-44800000D01*
X186050000Y-44800000D02*
X184250000Y-46600000D01*
X184250000Y-46600000D02*
X184250000Y-49600000D01*
X184250000Y-49600000D02*
X183650000Y-50200000D01*
X183650000Y-50200000D02*
X180650000Y-50200000D01*
X108850000Y-91000000D02*
X112050000Y-94200000D01*
X112050000Y-94200000D02*
X112450000Y-94600000D01*
X175850000Y-94600000D02*
X179850000Y-90600000D01*
X105766469Y-99414171D02*
X105766469Y-98283531D01*
X109450000Y-94600000D02*
X112450000Y-94600000D01*
X105766469Y-98283531D02*
X109450000Y-94600000D01*
X115566469Y-95083531D02*
X116050000Y-94600000D01*
X112450000Y-94600000D02*
X116050000Y-94600000D01*
X115566469Y-99414171D02*
X115566469Y-95083531D01*
X119050000Y-90800000D02*
X119050000Y-94600000D01*
X116050000Y-94600000D02*
X119050000Y-94600000D01*
X125766469Y-99214171D02*
X125766469Y-95083531D01*
X125766469Y-95083531D02*
X126250000Y-94600000D01*
X119050000Y-94600000D02*
X126250000Y-94600000D01*
X129250000Y-90800000D02*
X129250000Y-94600000D01*
X126250000Y-94600000D02*
X129250000Y-94600000D01*
X135966469Y-95083531D02*
X136450000Y-94600000D01*
X135966469Y-99214171D02*
X135966469Y-95083531D01*
X129250000Y-94600000D02*
X136450000Y-94600000D01*
X138850000Y-90800000D02*
X138850000Y-94400000D01*
X136450000Y-94600000D02*
X138650000Y-94600000D01*
X138850000Y-94400000D02*
X138650000Y-94600000D01*
X146366469Y-94883531D02*
X146650000Y-94600000D01*
X146366469Y-99214171D02*
X146366469Y-94883531D01*
X138650000Y-94600000D02*
X146650000Y-94600000D01*
X149050000Y-90800000D02*
X149050000Y-94200000D01*
X146650000Y-94600000D02*
X149450000Y-94600000D01*
X149050000Y-94200000D02*
X149450000Y-94600000D01*
X158850000Y-94400000D02*
X158650000Y-94600000D01*
X158850000Y-90800000D02*
X158850000Y-94400000D01*
X156366469Y-94883531D02*
X156650000Y-94600000D01*
X156366469Y-99414171D02*
X156366469Y-94883531D01*
X149450000Y-94600000D02*
X156650000Y-94600000D01*
X156650000Y-94600000D02*
X158650000Y-94600000D01*
X169050000Y-90800000D02*
X169050000Y-94600000D01*
X169050000Y-94600000D02*
X175850000Y-94600000D01*
X166366469Y-99414171D02*
X166366469Y-95083531D01*
X158650000Y-94600000D02*
X166850000Y-94600000D01*
X166366469Y-95083531D02*
X166850000Y-94600000D01*
X166850000Y-94600000D02*
X169050000Y-94600000D01*
X221850000Y-40200000D02*
X222450000Y-40200000D01*
X222450000Y-40200000D02*
X223050000Y-40800000D01*
X223050000Y-40800000D02*
X223050000Y-45000000D01*
X184250000Y-49600000D02*
X184450000Y-49600000D01*
X184450000Y-49600000D02*
X188250000Y-53400000D01*
X188250000Y-53400000D02*
X188250000Y-63600000D01*
X188250000Y-63600000D02*
X186250000Y-65600000D01*
X186250000Y-65600000D02*
X182850000Y-65600000D01*
X182300010Y-66149990D02*
X182050000Y-66149990D01*
X182850000Y-65600000D02*
X182300010Y-66149990D01*
X179650000Y-90760000D02*
X179650000Y-86100000D01*
X179650000Y-86100000D02*
X188750000Y-77000000D01*
X188750000Y-77000000D02*
X188750000Y-73750000D01*
D31*
X110816469Y-126074171D02*
X110816469Y-125183531D01*
X110816469Y-125183531D02*
X112750000Y-123250000D01*
X174750000Y-123250000D02*
X176750000Y-125250000D01*
X120766469Y-123516469D02*
X120500000Y-123250000D01*
X120766469Y-126074171D02*
X120766469Y-123516469D01*
X112750000Y-123250000D02*
X120500000Y-123250000D01*
X130966469Y-123466469D02*
X130750000Y-123250000D01*
X130966469Y-126074171D02*
X130966469Y-123466469D01*
X120500000Y-123250000D02*
X130750000Y-123250000D01*
X141166469Y-123666469D02*
X140750000Y-123250000D01*
X141166469Y-126074171D02*
X141166469Y-123666469D01*
X130750000Y-123250000D02*
X140750000Y-123250000D01*
X151366469Y-123883531D02*
X152000000Y-123250000D01*
X151366469Y-126074171D02*
X151366469Y-123883531D01*
X140750000Y-123250000D02*
X152000000Y-123250000D01*
X161366469Y-123866469D02*
X160750000Y-123250000D01*
X161366469Y-126074171D02*
X161366469Y-123866469D01*
X152000000Y-123250000D02*
X160750000Y-123250000D01*
X171366469Y-126074171D02*
X171366469Y-123883531D01*
X171366469Y-123883531D02*
X172000000Y-123250000D01*
X160750000Y-123250000D02*
X172000000Y-123250000D01*
X172000000Y-123250000D02*
X174750000Y-123250000D01*
D33*
X176750000Y-95500000D02*
X175850000Y-94600000D01*
X176750000Y-113750000D02*
X176750000Y-95500000D01*
D32*
%TO.N,/NOA4*%
X82650000Y-71750000D02*
X89300000Y-71750000D01*
X89300000Y-71750000D02*
X91850000Y-69200000D01*
X91850000Y-69200000D02*
X91850000Y-50600000D01*
X91850000Y-50600000D02*
X94250000Y-48200000D01*
X135450000Y-48200000D02*
X138850000Y-51600000D01*
X138850000Y-51600000D02*
X138850000Y-61600000D01*
X94250000Y-48200000D02*
X135450000Y-48200000D01*
%TO.N,/COA5*%
X87650000Y-74250000D02*
X89000000Y-74250000D01*
X89000000Y-74250000D02*
X93250000Y-70000000D01*
X93250000Y-70000000D02*
X93250000Y-51250010D01*
X93250000Y-51250010D02*
X95050000Y-49450010D01*
X129100010Y-49450010D02*
X131450000Y-51800000D01*
X131450000Y-51800000D02*
X131450000Y-63000000D01*
X95050000Y-49450010D02*
X129100010Y-49450010D01*
%TO.N,/NOA5*%
X82650000Y-76750000D02*
X88425010Y-76750000D01*
X88425010Y-76750000D02*
X88575010Y-76600000D01*
X88575010Y-76600000D02*
X90050000Y-76600000D01*
X90050000Y-76600000D02*
X94650000Y-72000000D01*
X94650000Y-72000000D02*
X94650000Y-52000000D01*
X94650000Y-52000000D02*
X95850000Y-50800000D01*
X127250000Y-50800000D02*
X128850000Y-52400000D01*
X128850000Y-52400000D02*
X128850000Y-61400000D01*
X127250000Y-50800000D02*
X95850000Y-50800000D01*
%TO.N,/NOA6*%
X82650000Y-84750000D02*
X91700000Y-84750000D01*
X91700000Y-84750000D02*
X93050000Y-83400000D01*
X93050000Y-83400000D02*
X93050000Y-78000000D01*
X93050000Y-78000000D02*
X97650000Y-73400000D01*
X97650000Y-73400000D02*
X97650000Y-54800000D01*
X97650000Y-54800000D02*
X98650000Y-53800000D01*
X117050000Y-53800000D02*
X119050000Y-55800000D01*
X119050000Y-55800000D02*
X119050000Y-61600000D01*
X117050000Y-53800000D02*
X98650000Y-53800000D01*
%TO.N,/COA6*%
X87650000Y-82250000D02*
X87650000Y-81400000D01*
X87650000Y-81400000D02*
X96050000Y-73000000D01*
X96050000Y-73000000D02*
X96050000Y-53000000D01*
X96050000Y-53000000D02*
X96650000Y-52400000D01*
X119250000Y-52400000D02*
X121250000Y-54400000D01*
X121250000Y-54400000D02*
X121250000Y-63000000D01*
X96650000Y-52400000D02*
X119250000Y-52400000D01*
%TO.N,/COA7*%
X87650000Y-87250000D02*
X91600000Y-87250000D01*
X91600000Y-87250000D02*
X94450000Y-84400000D01*
X94450000Y-84400000D02*
X94450000Y-78800000D01*
X94450000Y-78800000D02*
X99050000Y-74200000D01*
X99050000Y-74200000D02*
X99050000Y-55650010D01*
X99050000Y-55650010D02*
X99500010Y-55200000D01*
X109650000Y-55200000D02*
X111450000Y-57000000D01*
X111450000Y-57000000D02*
X111450000Y-63200000D01*
X99500010Y-55200000D02*
X109650000Y-55200000D01*
%TO.N,/NOA7*%
X82650000Y-89750000D02*
X92700000Y-89750000D01*
X92700000Y-89750000D02*
X96250000Y-86200000D01*
X96250000Y-86200000D02*
X96250000Y-79400000D01*
X96250000Y-79400000D02*
X100450000Y-75200000D01*
X100450000Y-75200000D02*
X100450000Y-57400000D01*
X100450000Y-57400000D02*
X101250000Y-56600000D01*
X107850000Y-56600000D02*
X109050000Y-57800000D01*
X109050000Y-57800000D02*
X109050000Y-61800000D01*
X101250000Y-56600000D02*
X107850000Y-56600000D01*
%TO.N,/NOB1*%
X82650000Y-102600000D02*
X91850000Y-102600000D01*
X91850000Y-102600000D02*
X101250000Y-112000000D01*
X101250000Y-112000000D02*
X101250000Y-121000000D01*
X101250000Y-121000000D02*
X103750000Y-123500000D01*
X115500000Y-128500000D02*
X115750000Y-128500000D01*
X103750000Y-123500000D02*
X107250000Y-123500000D01*
X107250000Y-123500000D02*
X107750000Y-124000000D01*
%TO.N,/COB1*%
X96350000Y-100100000D02*
X102650000Y-106400000D01*
X102650000Y-106400000D02*
X110650000Y-106400000D01*
X110650000Y-106400000D02*
X112050000Y-107800000D01*
X87650000Y-100100000D02*
X96350000Y-100100000D01*
%TO.N,/COB2*%
X87650000Y-105100000D02*
X89350000Y-105100000D01*
X89350000Y-105100000D02*
X98450000Y-114200000D01*
X98450000Y-114200000D02*
X98450000Y-130749990D01*
X98450000Y-130749990D02*
X98900010Y-131200000D01*
X122450000Y-131200000D02*
X123450000Y-130200000D01*
X98900010Y-131200000D02*
X122450000Y-131200000D01*
X123450000Y-130200000D02*
X123450000Y-127300000D01*
X123450000Y-127300000D02*
X123500000Y-127250000D01*
%TO.N,/NOB2*%
X82650000Y-107600000D02*
X90050000Y-107600000D01*
X90050000Y-107600000D02*
X97050000Y-114600000D01*
X97050000Y-114600000D02*
X97050000Y-131800000D01*
X97050000Y-131800000D02*
X97850000Y-132600000D01*
X124450000Y-132600000D02*
X125850000Y-131200000D01*
X125850000Y-131200000D02*
X125850000Y-128600000D01*
X97850000Y-132600000D02*
X124450000Y-132600000D01*
%TO.N,/COB3*%
X87650000Y-110100000D02*
X87950000Y-110100000D01*
X87950000Y-110100000D02*
X95750020Y-117900020D01*
X95750020Y-117900020D02*
X95750020Y-133200000D01*
X95750020Y-133200000D02*
X96450000Y-133899980D01*
X131750020Y-133899980D02*
X133650000Y-132000000D01*
X96450000Y-133899980D02*
X131750020Y-133899980D01*
X133650000Y-132000000D02*
X133650000Y-127400000D01*
X133650000Y-127400000D02*
X133500000Y-127250000D01*
%TO.N,/NOB3*%
X82650000Y-112600000D02*
X84050000Y-112600000D01*
X84050000Y-112600000D02*
X85850000Y-114400000D01*
X85850000Y-114400000D02*
X90450000Y-114400000D01*
X90450000Y-114400000D02*
X94500010Y-118450010D01*
X94500010Y-118450010D02*
X94500010Y-134282230D01*
X94500010Y-134282230D02*
X95367770Y-135149990D01*
X133900010Y-135149990D02*
X136250000Y-132800000D01*
X136250000Y-132800000D02*
X136250000Y-128800000D01*
X95367770Y-135149990D02*
X133900010Y-135149990D01*
%TO.N,/COB4*%
X87650000Y-118000000D02*
X88850000Y-118000000D01*
X88850000Y-118000000D02*
X93250000Y-122400000D01*
X93250000Y-122400000D02*
X93250000Y-134800000D01*
X93250000Y-134800000D02*
X94850000Y-136400000D01*
X141050000Y-136400000D02*
X143850000Y-133600000D01*
X94850000Y-136400000D02*
X141050000Y-136400000D01*
X143850000Y-133600000D02*
X143850000Y-127350000D01*
X143850000Y-127350000D02*
X143750000Y-127250000D01*
%TO.N,Net-(JP1-Pad2)*%
X214940000Y-106730000D02*
X214940000Y-106290000D01*
X214940000Y-106290000D02*
X212650000Y-104000000D01*
X212650000Y-104000000D02*
X212650000Y-95800000D01*
X212650000Y-95800000D02*
X213450000Y-95000000D01*
X213450000Y-95000000D02*
X216250000Y-95000000D01*
X216250000Y-95000000D02*
X217450000Y-93800000D01*
X217450000Y-93800000D02*
X217450000Y-92400000D01*
%TO.N,/GPA5*%
X192050000Y-91400000D02*
X192050000Y-106800000D01*
%TO.N,/GPA6*%
X189650000Y-89600000D02*
X189650000Y-106600000D01*
X189650000Y-106600000D02*
X189450000Y-106800000D01*
%TO.N,/GPA7*%
X187050000Y-87800000D02*
X187050000Y-106800000D01*
%TO.N,/GPB0*%
X109664171Y-99814171D02*
X112850000Y-103000000D01*
X108966469Y-99814171D02*
X109664171Y-99814171D01*
X112850000Y-103000000D02*
X119050000Y-103000000D01*
X119050000Y-103000000D02*
X120450000Y-104400000D01*
X187000000Y-114350000D02*
X187000000Y-115750000D01*
X187000000Y-115750000D02*
X183750000Y-119000000D01*
X183750000Y-119000000D02*
X175750000Y-119000000D01*
X175750000Y-119000000D02*
X173250000Y-116500000D01*
X173250000Y-116500000D02*
X173250000Y-108500000D01*
X169150000Y-104400000D02*
X120450000Y-104400000D01*
X173250000Y-108500000D02*
X169150000Y-104400000D01*
%TO.N,/GPB1*%
X118864171Y-99814171D02*
X118766469Y-99814171D01*
X121850000Y-102800000D02*
X118864171Y-99814171D01*
X184750000Y-113250000D02*
X184750000Y-116232220D01*
X185325001Y-112674999D02*
X184750000Y-113250000D01*
X188674999Y-112674999D02*
X185325001Y-112674999D01*
X189540000Y-114350000D02*
X189540000Y-113540000D01*
X184750000Y-116232220D02*
X183366110Y-117616110D01*
X189540000Y-113540000D02*
X188674999Y-112674999D01*
X183366110Y-117616110D02*
X176866120Y-117616110D01*
X176866120Y-117616110D02*
X174500009Y-115249999D01*
X174500009Y-115249999D02*
X174500009Y-107982229D01*
X174500009Y-107982229D02*
X169317780Y-102800000D01*
X169317780Y-102800000D02*
X121850000Y-102800000D01*
D34*
%TO.N,Net-(R17-Pad1)*%
X204850000Y-110400000D02*
X204850000Y-114400000D01*
X185450000Y-109400000D02*
X203850000Y-109400000D01*
X183450000Y-107400000D02*
X185450000Y-109400000D01*
X203850000Y-109400000D02*
X204850000Y-110400000D01*
X185050000Y-103000000D02*
X183450000Y-104600000D01*
X183450000Y-104600000D02*
X183450000Y-107400000D01*
X185050000Y-85200000D02*
X185050000Y-103000000D01*
X133650000Y-45600000D02*
X134850000Y-46800000D01*
X134850000Y-46800000D02*
X136650000Y-46800000D01*
X182050000Y-57600000D02*
X185050000Y-60600000D01*
X125250000Y-45600000D02*
X133650000Y-45600000D01*
X147450000Y-57600000D02*
X182050000Y-57600000D01*
X136650000Y-46800000D02*
X147450000Y-57600000D01*
%TO.N,/SDA*%
X154650000Y-43800000D02*
X154650000Y-48000000D01*
X154650000Y-48000000D02*
X159450000Y-52800000D01*
X159450000Y-52800000D02*
X177250000Y-52800000D01*
X223250000Y-77800000D02*
X223250000Y-101400000D01*
X223250000Y-101400000D02*
X224450000Y-102600000D01*
X224450000Y-102600000D02*
X224450000Y-115200000D01*
X224450000Y-115200000D02*
X222650000Y-117000000D01*
X222650000Y-117000000D02*
X218650000Y-117000000D01*
X218650000Y-117000000D02*
X217450000Y-115800000D01*
X217450000Y-115800000D02*
X217450000Y-114200000D01*
%TO.N,/SCK*%
X152150000Y-43800000D02*
X152150000Y-49300000D01*
X152150000Y-49300000D02*
X157850000Y-55000000D01*
X157850000Y-55000000D02*
X181850000Y-55000000D01*
X223450000Y-74000000D02*
X224250000Y-74000000D01*
X224250000Y-74000000D02*
X226250000Y-76000000D01*
X226250000Y-76000000D02*
X226250000Y-117000000D01*
X226250000Y-117000000D02*
X223850000Y-119400000D01*
X223850000Y-119400000D02*
X216250000Y-119400000D01*
X216250000Y-119400000D02*
X214850000Y-118000000D01*
X214850000Y-118000000D02*
X214850000Y-114200000D01*
%TD*%
M02*
