%TF.GenerationSoftware,KiCad,Pcbnew,(5.1.6)-1*%
%TF.CreationDate,2021-11-12T17:11:00+01:00*%
%TF.ProjectId,Relay Control,52656c61-7920-4436-9f6e-74726f6c2e6b,rev?*%
%TF.SameCoordinates,Original*%
%TF.FileFunction,Legend,Bot*%
%TF.FilePolarity,Positive*%
%FSLAX46Y46*%
G04 Gerber Fmt 4.6, Leading zero omitted, Abs format (unit mm)*
G04 Created by KiCad (PCBNEW (5.1.6)-1) date 2021-11-12 17:11:00*
%MOMM*%
%LPD*%
G01*
G04 APERTURE LIST*
%ADD10O,1.700000X1.700000*%
%ADD11R,1.700000X1.700000*%
%ADD12C,1.900000*%
%ADD13R,1.900000X1.900000*%
%ADD14C,2.100000*%
%ADD15R,2.100000X2.100000*%
%ADD16C,1.700000*%
%ADD17R,1.600000X1.600000*%
%ADD18C,1.600000*%
%ADD19O,1.700000X3.100000*%
%ADD20R,1.700000X3.100000*%
%ADD21O,2.500000X4.900000*%
%ADD22R,2.500000X4.900000*%
%ADD23O,3.700000X2.500000*%
%ADD24C,0.100000*%
%ADD25C,2.000000*%
%ADD26R,2.000000X2.000000*%
%ADD27O,2.500000X2.500000*%
%ADD28R,2.500000X2.500000*%
G04 APERTURE END LIST*
%LPC*%
D10*
%TO.C,U1*%
X187000000Y-106730000D03*
X220020000Y-114350000D03*
X189540000Y-106730000D03*
X217480000Y-114350000D03*
X192080000Y-106730000D03*
X214940000Y-114350000D03*
X194620000Y-106730000D03*
X212400000Y-114350000D03*
X197160000Y-106730000D03*
X209860000Y-114350000D03*
X199700000Y-106730000D03*
X207320000Y-114350000D03*
X202240000Y-106730000D03*
X204780000Y-114350000D03*
X204780000Y-106730000D03*
X202240000Y-114350000D03*
X207320000Y-106730000D03*
X199700000Y-114350000D03*
X209860000Y-106730000D03*
X197160000Y-114350000D03*
X212400000Y-106730000D03*
X194620000Y-114350000D03*
X214940000Y-106730000D03*
X192080000Y-114350000D03*
X217480000Y-106730000D03*
X189540000Y-114350000D03*
X220020000Y-106730000D03*
D11*
X187000000Y-114350000D03*
%TD*%
D12*
%TO.C,U2*%
X180300000Y-44520000D03*
X180300000Y-47060000D03*
D13*
X180300000Y-49600000D03*
%TD*%
D14*
%TO.C,Re15*%
X171366469Y-118454171D03*
X166286469Y-118454171D03*
X171366469Y-126074171D03*
D15*
X171366469Y-128614171D03*
D14*
X166286469Y-126074171D03*
X166286469Y-128614171D03*
%TD*%
%TO.C,Re14*%
X161366469Y-118454171D03*
X156286469Y-118454171D03*
X161366469Y-126074171D03*
D15*
X161366469Y-128614171D03*
D14*
X156286469Y-126074171D03*
X156286469Y-128614171D03*
%TD*%
%TO.C,Re13*%
X151366469Y-118454171D03*
X146286469Y-118454171D03*
X151366469Y-126074171D03*
D15*
X151366469Y-128614171D03*
D14*
X146286469Y-126074171D03*
X146286469Y-128614171D03*
%TD*%
%TO.C,Re12*%
X141166469Y-118454171D03*
X136086469Y-118454171D03*
X141166469Y-126074171D03*
D15*
X141166469Y-128614171D03*
D14*
X136086469Y-126074171D03*
X136086469Y-128614171D03*
%TD*%
%TO.C,Re11*%
X130966469Y-118454171D03*
X125886469Y-118454171D03*
X130966469Y-126074171D03*
D15*
X130966469Y-128614171D03*
D14*
X125886469Y-126074171D03*
X125886469Y-128614171D03*
%TD*%
%TO.C,Re10*%
X120766469Y-118454171D03*
X115686469Y-118454171D03*
X120766469Y-126074171D03*
D15*
X120766469Y-128614171D03*
D14*
X115686469Y-126074171D03*
X115686469Y-128614171D03*
%TD*%
%TO.C,Re9*%
X110816469Y-118454171D03*
X105736469Y-118454171D03*
X110816469Y-126074171D03*
D15*
X110816469Y-128614171D03*
D14*
X105736469Y-126074171D03*
X105736469Y-128614171D03*
%TD*%
%TO.C,Re8*%
X104000000Y-71860000D03*
X109080000Y-71860000D03*
X104000000Y-64240000D03*
D15*
X104000000Y-61700000D03*
D14*
X109080000Y-64240000D03*
X109080000Y-61700000D03*
%TD*%
%TO.C,Re7*%
X113950000Y-71660000D03*
X119030000Y-71660000D03*
X113950000Y-64040000D03*
D15*
X113950000Y-61500000D03*
D14*
X119030000Y-64040000D03*
X119030000Y-61500000D03*
%TD*%
%TO.C,Re6*%
X123900000Y-71660000D03*
X128980000Y-71660000D03*
X123900000Y-64040000D03*
D15*
X123900000Y-61500000D03*
D14*
X128980000Y-64040000D03*
X128980000Y-61500000D03*
%TD*%
%TO.C,Re5*%
X133850000Y-71660000D03*
X138930000Y-71660000D03*
X133850000Y-64040000D03*
D15*
X133850000Y-61500000D03*
D14*
X138930000Y-64040000D03*
X138930000Y-61500000D03*
%TD*%
%TO.C,Re4*%
X144000000Y-71660000D03*
X149080000Y-71660000D03*
X144000000Y-64040000D03*
D15*
X144000000Y-61500000D03*
D14*
X149080000Y-64040000D03*
X149080000Y-61500000D03*
%TD*%
%TO.C,Re3*%
X154200000Y-71660000D03*
X159280000Y-71660000D03*
X154200000Y-64040000D03*
D15*
X154200000Y-61500000D03*
D14*
X159280000Y-64040000D03*
X159280000Y-61500000D03*
%TD*%
%TO.C,Re2*%
X164200000Y-71660000D03*
X169280000Y-71660000D03*
X164200000Y-64040000D03*
D15*
X164200000Y-61500000D03*
D14*
X169280000Y-64040000D03*
X169280000Y-61500000D03*
%TD*%
%TO.C,Re1*%
X174600000Y-71660000D03*
X179680000Y-71660000D03*
X174600000Y-64040000D03*
D15*
X174600000Y-61500000D03*
D14*
X179680000Y-64040000D03*
X179680000Y-61500000D03*
%TD*%
D10*
%TO.C,R17*%
X115090000Y-45600000D03*
D16*
X125250000Y-45600000D03*
%TD*%
D10*
%TO.C,R16*%
X115090000Y-42400000D03*
D16*
X125250000Y-42400000D03*
%TD*%
D10*
%TO.C,R15*%
X169566469Y-109974171D03*
D16*
X169566469Y-99814171D03*
%TD*%
D10*
%TO.C,R14*%
X159566469Y-109974171D03*
D16*
X159566469Y-99814171D03*
%TD*%
D10*
%TO.C,R13*%
X149566469Y-109774171D03*
D16*
X149566469Y-99614171D03*
%TD*%
D10*
%TO.C,R12*%
X139166469Y-109574171D03*
D16*
X139166469Y-99414171D03*
%TD*%
D10*
%TO.C,R11*%
X128966469Y-109774171D03*
D16*
X128966469Y-99614171D03*
%TD*%
D10*
%TO.C,R10*%
X118766469Y-109974171D03*
D16*
X118766469Y-99814171D03*
%TD*%
D10*
%TO.C,R9*%
X108966469Y-109974171D03*
D16*
X108966469Y-99814171D03*
%TD*%
D10*
%TO.C,R8*%
X105650000Y-80640000D03*
D16*
X105650000Y-90800000D03*
%TD*%
D10*
%TO.C,R7*%
X115850000Y-80440000D03*
D16*
X115850000Y-90600000D03*
%TD*%
D10*
%TO.C,R6*%
X126050000Y-80440000D03*
D16*
X126050000Y-90600000D03*
%TD*%
D10*
%TO.C,R5*%
X135650000Y-80240000D03*
D16*
X135650000Y-90400000D03*
%TD*%
D10*
%TO.C,R4*%
X145850000Y-80240000D03*
D16*
X145850000Y-90400000D03*
%TD*%
D10*
%TO.C,R3*%
X155650000Y-80240000D03*
D16*
X155650000Y-90400000D03*
%TD*%
D10*
%TO.C,R2*%
X165850000Y-80240000D03*
D16*
X165850000Y-90400000D03*
%TD*%
D10*
%TO.C,R1*%
X176450000Y-80240000D03*
D16*
X176450000Y-90400000D03*
%TD*%
D17*
%TO.C,Q15*%
X166366469Y-114614171D03*
D18*
X171446469Y-114614171D03*
X168906469Y-114614171D03*
%TD*%
D17*
%TO.C,Q14*%
X156366469Y-114614171D03*
D18*
X161446469Y-114614171D03*
X158906469Y-114614171D03*
%TD*%
D17*
%TO.C,Q13*%
X146366469Y-114414171D03*
D18*
X151446469Y-114414171D03*
X148906469Y-114414171D03*
%TD*%
D17*
%TO.C,Q12*%
X135966469Y-114414171D03*
D18*
X141046469Y-114414171D03*
X138506469Y-114414171D03*
%TD*%
D17*
%TO.C,Q11*%
X125766469Y-114414171D03*
D18*
X130846469Y-114414171D03*
X128306469Y-114414171D03*
%TD*%
D17*
%TO.C,Q10*%
X115566469Y-114614171D03*
D18*
X120646469Y-114614171D03*
X118106469Y-114614171D03*
%TD*%
D17*
%TO.C,Q9*%
X105766469Y-114614171D03*
D18*
X110846469Y-114614171D03*
X108306469Y-114614171D03*
%TD*%
D17*
%TO.C,Q8*%
X108850000Y-75800000D03*
D18*
X103770000Y-75800000D03*
X106310000Y-75800000D03*
%TD*%
D17*
%TO.C,Q7*%
X119050000Y-75600000D03*
D18*
X113970000Y-75600000D03*
X116510000Y-75600000D03*
%TD*%
D17*
%TO.C,Q6*%
X129250000Y-75600000D03*
D18*
X124170000Y-75600000D03*
X126710000Y-75600000D03*
%TD*%
D17*
%TO.C,Q5*%
X138850000Y-75600000D03*
D18*
X133770000Y-75600000D03*
X136310000Y-75600000D03*
%TD*%
D17*
%TO.C,Q4*%
X149050000Y-75600000D03*
D18*
X143970000Y-75600000D03*
X146510000Y-75600000D03*
%TD*%
D17*
%TO.C,Q3*%
X158850000Y-75600000D03*
D18*
X153770000Y-75600000D03*
X156310000Y-75600000D03*
%TD*%
D17*
%TO.C,Q2*%
X169050000Y-75600000D03*
D18*
X163970000Y-75600000D03*
X166510000Y-75600000D03*
%TD*%
D17*
%TO.C,Q1*%
X179650000Y-75600000D03*
D18*
X174570000Y-75600000D03*
X177110000Y-75600000D03*
%TD*%
D19*
%TO.C,JP3*%
X215050000Y-102600000D03*
X217550000Y-102600000D03*
D20*
X220050000Y-102600000D03*
%TD*%
D19*
%TO.C,JP2*%
X215050000Y-97600000D03*
X217550000Y-97600000D03*
D20*
X220050000Y-97600000D03*
%TD*%
D19*
%TO.C,JP1*%
X215050000Y-92400000D03*
X217550000Y-92400000D03*
D20*
X220050000Y-92400000D03*
%TD*%
D21*
%TO.C,J8*%
X218330000Y-47600000D03*
D22*
X213250000Y-47600000D03*
%TD*%
D19*
%TO.C,J7*%
X142250000Y-44000000D03*
X139750000Y-44000000D03*
D20*
X137250000Y-44000000D03*
%TD*%
D19*
%TO.C,J6*%
X154650000Y-43800000D03*
X152150000Y-43800000D03*
D20*
X149650000Y-43800000D03*
%TD*%
D23*
%TO.C,J5*%
X82650000Y-120500000D03*
D24*
G36*
X89499039Y-119209755D02*
G01*
X89496194Y-119219134D01*
X89491573Y-119227779D01*
X89485355Y-119235355D01*
X89477779Y-119241573D01*
X89469134Y-119246194D01*
X89459755Y-119249039D01*
X89450000Y-119250000D01*
X85850000Y-119250000D01*
X85840245Y-119249039D01*
X85830866Y-119246194D01*
X85822221Y-119241573D01*
X85814645Y-119235355D01*
X85808427Y-119227779D01*
X85803806Y-119219134D01*
X85800961Y-119209755D01*
X85800000Y-119200000D01*
X85800000Y-116800000D01*
X85800961Y-116790245D01*
X85803806Y-116780866D01*
X85808427Y-116772221D01*
X85814645Y-116764645D01*
X85822221Y-116758427D01*
X85830866Y-116753806D01*
X85840245Y-116750961D01*
X85850000Y-116750000D01*
X89450000Y-116750000D01*
X89459755Y-116750961D01*
X89469134Y-116753806D01*
X89477779Y-116758427D01*
X89485355Y-116764645D01*
X89491573Y-116772221D01*
X89496194Y-116780866D01*
X89499039Y-116790245D01*
X89500000Y-116800000D01*
X89500000Y-119200000D01*
X89499039Y-119209755D01*
G37*
D23*
X87650000Y-123000000D03*
X82650000Y-125500000D03*
X87650000Y-128000000D03*
X82650000Y-130500000D03*
%TD*%
%TO.C,J4*%
X82650000Y-102600000D03*
D24*
G36*
X89499039Y-101309755D02*
G01*
X89496194Y-101319134D01*
X89491573Y-101327779D01*
X89485355Y-101335355D01*
X89477779Y-101341573D01*
X89469134Y-101346194D01*
X89459755Y-101349039D01*
X89450000Y-101350000D01*
X85850000Y-101350000D01*
X85840245Y-101349039D01*
X85830866Y-101346194D01*
X85822221Y-101341573D01*
X85814645Y-101335355D01*
X85808427Y-101327779D01*
X85803806Y-101319134D01*
X85800961Y-101309755D01*
X85800000Y-101300000D01*
X85800000Y-98900000D01*
X85800961Y-98890245D01*
X85803806Y-98880866D01*
X85808427Y-98872221D01*
X85814645Y-98864645D01*
X85822221Y-98858427D01*
X85830866Y-98853806D01*
X85840245Y-98850961D01*
X85850000Y-98850000D01*
X89450000Y-98850000D01*
X89459755Y-98850961D01*
X89469134Y-98853806D01*
X89477779Y-98858427D01*
X89485355Y-98864645D01*
X89491573Y-98872221D01*
X89496194Y-98880866D01*
X89499039Y-98890245D01*
X89500000Y-98900000D01*
X89500000Y-101300000D01*
X89499039Y-101309755D01*
G37*
D23*
X87650000Y-105100000D03*
X82650000Y-107600000D03*
X87650000Y-110100000D03*
X82650000Y-112600000D03*
%TD*%
%TO.C,J3*%
X82650000Y-84750000D03*
D24*
G36*
X89499039Y-83459755D02*
G01*
X89496194Y-83469134D01*
X89491573Y-83477779D01*
X89485355Y-83485355D01*
X89477779Y-83491573D01*
X89469134Y-83496194D01*
X89459755Y-83499039D01*
X89450000Y-83500000D01*
X85850000Y-83500000D01*
X85840245Y-83499039D01*
X85830866Y-83496194D01*
X85822221Y-83491573D01*
X85814645Y-83485355D01*
X85808427Y-83477779D01*
X85803806Y-83469134D01*
X85800961Y-83459755D01*
X85800000Y-83450000D01*
X85800000Y-81050000D01*
X85800961Y-81040245D01*
X85803806Y-81030866D01*
X85808427Y-81022221D01*
X85814645Y-81014645D01*
X85822221Y-81008427D01*
X85830866Y-81003806D01*
X85840245Y-81000961D01*
X85850000Y-81000000D01*
X89450000Y-81000000D01*
X89459755Y-81000961D01*
X89469134Y-81003806D01*
X89477779Y-81008427D01*
X89485355Y-81014645D01*
X89491573Y-81022221D01*
X89496194Y-81030866D01*
X89499039Y-81040245D01*
X89500000Y-81050000D01*
X89500000Y-83450000D01*
X89499039Y-83459755D01*
G37*
D23*
X87650000Y-87250000D03*
X82650000Y-89750000D03*
X87650000Y-92250000D03*
X82650000Y-94750000D03*
%TD*%
%TO.C,J2*%
X82650000Y-66750000D03*
D24*
G36*
X89499039Y-65459755D02*
G01*
X89496194Y-65469134D01*
X89491573Y-65477779D01*
X89485355Y-65485355D01*
X89477779Y-65491573D01*
X89469134Y-65496194D01*
X89459755Y-65499039D01*
X89450000Y-65500000D01*
X85850000Y-65500000D01*
X85840245Y-65499039D01*
X85830866Y-65496194D01*
X85822221Y-65491573D01*
X85814645Y-65485355D01*
X85808427Y-65477779D01*
X85803806Y-65469134D01*
X85800961Y-65459755D01*
X85800000Y-65450000D01*
X85800000Y-63050000D01*
X85800961Y-63040245D01*
X85803806Y-63030866D01*
X85808427Y-63022221D01*
X85814645Y-63014645D01*
X85822221Y-63008427D01*
X85830866Y-63003806D01*
X85840245Y-63000961D01*
X85850000Y-63000000D01*
X89450000Y-63000000D01*
X89459755Y-63000961D01*
X89469134Y-63003806D01*
X89477779Y-63008427D01*
X89485355Y-63014645D01*
X89491573Y-63022221D01*
X89496194Y-63030866D01*
X89499039Y-63040245D01*
X89500000Y-63050000D01*
X89500000Y-65450000D01*
X89499039Y-65459755D01*
G37*
D23*
X87650000Y-69250000D03*
X82650000Y-71750000D03*
X87650000Y-74250000D03*
X82650000Y-76750000D03*
%TD*%
%TO.C,J1*%
X82650000Y-48500000D03*
D24*
G36*
X89499039Y-47209755D02*
G01*
X89496194Y-47219134D01*
X89491573Y-47227779D01*
X89485355Y-47235355D01*
X89477779Y-47241573D01*
X89469134Y-47246194D01*
X89459755Y-47249039D01*
X89450000Y-47250000D01*
X85850000Y-47250000D01*
X85840245Y-47249039D01*
X85830866Y-47246194D01*
X85822221Y-47241573D01*
X85814645Y-47235355D01*
X85808427Y-47227779D01*
X85803806Y-47219134D01*
X85800961Y-47209755D01*
X85800000Y-47200000D01*
X85800000Y-44800000D01*
X85800961Y-44790245D01*
X85803806Y-44780866D01*
X85808427Y-44772221D01*
X85814645Y-44764645D01*
X85822221Y-44758427D01*
X85830866Y-44753806D01*
X85840245Y-44750961D01*
X85850000Y-44750000D01*
X89450000Y-44750000D01*
X89459755Y-44750961D01*
X89469134Y-44753806D01*
X89477779Y-44758427D01*
X89485355Y-44764645D01*
X89491573Y-44772221D01*
X89496194Y-44780866D01*
X89499039Y-44790245D01*
X89500000Y-44800000D01*
X89500000Y-47200000D01*
X89499039Y-47209755D01*
G37*
D23*
X87650000Y-51000000D03*
X82650000Y-53500000D03*
X87650000Y-56000000D03*
X82650000Y-58500000D03*
%TD*%
D25*
%TO.C,D18*%
X109850000Y-45300000D03*
D26*
X109850000Y-42800000D03*
%TD*%
D25*
%TO.C,D17*%
X102450000Y-45300000D03*
D26*
X102450000Y-42800000D03*
%TD*%
D27*
%TO.C,D16*%
X223050000Y-55360000D03*
D28*
X223050000Y-45200000D03*
%TD*%
D27*
%TO.C,D15*%
X166366469Y-109574171D03*
D28*
X166366469Y-99414171D03*
%TD*%
D27*
%TO.C,D14*%
X156366469Y-109574171D03*
D28*
X156366469Y-99414171D03*
%TD*%
D27*
%TO.C,D13*%
X146366469Y-109374171D03*
D28*
X146366469Y-99214171D03*
%TD*%
D27*
%TO.C,D12*%
X135966469Y-109374171D03*
D28*
X135966469Y-99214171D03*
%TD*%
D27*
%TO.C,D11*%
X125766469Y-109374171D03*
D28*
X125766469Y-99214171D03*
%TD*%
D27*
%TO.C,D10*%
X115566469Y-109574171D03*
D28*
X115566469Y-99414171D03*
%TD*%
D27*
%TO.C,D9*%
X105766469Y-109574171D03*
D28*
X105766469Y-99414171D03*
%TD*%
D27*
%TO.C,D8*%
X108850000Y-80840000D03*
D28*
X108850000Y-91000000D03*
%TD*%
D27*
%TO.C,D7*%
X119050000Y-80640000D03*
D28*
X119050000Y-90800000D03*
%TD*%
D27*
%TO.C,D6*%
X129250000Y-80640000D03*
D28*
X129250000Y-90800000D03*
%TD*%
D27*
%TO.C,D5*%
X138850000Y-80640000D03*
D28*
X138850000Y-90800000D03*
%TD*%
D27*
%TO.C,D4*%
X149050000Y-80640000D03*
D28*
X149050000Y-90800000D03*
%TD*%
D27*
%TO.C,D3*%
X158850000Y-80640000D03*
D28*
X158850000Y-90800000D03*
%TD*%
D27*
%TO.C,D2*%
X169050000Y-80640000D03*
D28*
X169050000Y-90800000D03*
%TD*%
D27*
%TO.C,D1*%
X179650000Y-80600000D03*
D28*
X179650000Y-90760000D03*
%TD*%
D14*
%TO.C,C6*%
X212250000Y-117600000D03*
X207250000Y-117600000D03*
%TD*%
%TO.C,C5*%
X166250000Y-49800000D03*
X166250000Y-44800000D03*
%TD*%
D16*
%TO.C,C4*%
X173650000Y-49600000D03*
D11*
X173650000Y-44600000D03*
%TD*%
D14*
%TO.C,C3*%
X199450000Y-49800000D03*
X199450000Y-44800000D03*
%TD*%
D16*
%TO.C,C2*%
X205850000Y-49800000D03*
D11*
X205850000Y-44800000D03*
%TD*%
D14*
%TO.C,C1*%
X212250000Y-121600000D03*
X207250000Y-121600000D03*
%TD*%
M02*
